<svg width="88" height="40" viewBox="0 0 88 40" fill="none" xmlns="http://www.w3.org/2000/svg">
<path d="M42.1965 14.5273C41.4712 14.5273 41.0738 14.598 40.4883 14.8808C39.412 15.3739 38.6172 16.172 37.915 17.4641L37.6807 17.8641L37.7038 17.1357C37.7279 16.7357 37.7502 16.0073 37.7742 15.4911L37.7974 14.5748H37.6334C37.4463 14.5748 31.2696 15.8194 31.0825 15.8901C30.9658 15.9366 30.9427 15.9841 30.9427 16.2901C30.9427 16.5953 30.9658 16.6418 31.0825 16.6659C31.1529 16.6892 31.4345 16.7357 31.7143 16.7832C32.2525 16.8771 32.4164 16.9711 32.6499 17.2762C33.0713 17.8166 33.1417 18.8036 33.1417 22.9153C33.1417 26.2753 33.0713 27.9664 32.9083 28.4836C32.7203 29.118 32.3692 29.4473 31.7615 29.5646C31.5744 29.6111 31.3169 29.6585 31.2002 29.6827L30.989 29.7292L30.9658 30.1525C30.9427 30.4576 30.9658 30.599 31.0362 30.6455C31.0825 30.6687 33.189 30.692 35.715 30.692L40.3244 30.6687L40.3485 30.1757C40.3485 29.9171 40.3485 29.6827 40.3244 29.6827C39.9733 29.6827 38.8738 29.5413 38.6867 29.4473C38.1716 29.2362 37.915 28.7655 37.7974 27.8027C37.6807 26.6985 37.5871 23.9022 37.6334 21.6464C37.6807 19.3441 37.6807 19.3441 37.8215 19.1794C38.1485 18.8269 38.9914 18.545 39.763 18.545C40.3716 18.545 41.0034 18.7097 41.6583 19.0148C41.9853 19.1794 42.2669 19.2734 42.3132 19.2734C42.4067 19.2501 43.9046 15.2325 43.9046 15.0446C43.9046 14.8092 43.0385 14.5273 42.1965 14.5273Z" fill="black"/>
<path d="M30.964 21.507C30.637 18.735 29.467 16.7145 27.5245 15.5629C25.3727 14.294 22.1204 14.2233 19.8037 15.3982C18.1197 16.2447 16.7626 17.8652 16.154 19.7452C15.5223 21.6717 15.5223 24.2094 16.154 26.1591C16.5523 27.428 17.0896 28.3452 17.9325 29.1666C18.9385 30.1768 20.2483 30.8112 21.7693 31.0233C22.3066 31.0931 24.0157 31.0931 24.5761 31.0233C24.8345 30.9768 25.3023 30.8819 25.583 30.8112C28.3202 30.0131 30.1923 27.8977 30.8241 24.8903C30.9871 24.1387 31.0575 22.3526 30.964 21.507ZM24.0388 29.8252C22.3307 30.3415 21.1144 28.6968 20.6457 25.2903C20.4827 24.1861 20.5058 21.1787 20.6457 19.9331C20.9736 17.1843 21.8157 15.7982 23.1496 15.7982C23.7581 15.7982 24.0851 15.9387 24.5529 16.4084C25.6765 17.5368 26.1916 19.6977 26.1916 23.0819C26.1916 25.7833 25.9109 27.4754 25.3255 28.6261C25.0216 29.1666 24.4825 29.6838 24.0379 29.8252H24.0388Z" fill="black"/>
<path d="M8.50357 10.4632H10.4692C12.7146 10.4632 13.0888 10.5097 13.8845 10.9097C15.0313 11.4735 15.8733 12.6018 16.6218 14.5749C16.9266 15.3739 16.9266 15.3739 17.5815 15.1628L18.0261 15.0214L17.9798 12.1311C17.9557 10.5339 17.9325 9.1237 17.9094 9.00649L17.8621 8.74788L9.27519 8.72463C4.54913 8.72463 0.595616 8.72463 0.477974 8.74788L0.2677 8.7944L0.290858 9.31161L0.314942 9.82881L0.969848 9.89951C1.81279 9.99254 2.3269 10.2521 2.63073 10.6744C3.30972 11.6614 3.42644 13.0242 3.42644 19.4381C3.42644 26.2753 3.28564 27.9442 2.63073 28.7897C2.30282 29.2363 2.02214 29.3777 1.25052 29.5181C0.244542 29.706 0.290858 29.6828 0.290858 30.2C0.290858 30.4818 0.314942 30.6465 0.361258 30.6697C0.477974 30.7163 11.4511 30.7163 11.5688 30.6697C11.7086 30.6232 11.7086 29.8 11.5688 29.7302C11.2979 29.6655 11.0247 29.6106 10.7499 29.5656C10.3516 29.4949 9.9301 29.4009 9.79023 29.3535C9.06492 29.0484 8.66753 28.1786 8.52673 26.6046C8.41002 25.4772 8.33962 23.386 8.33962 21.8586V20.4493L9.01768 20.4725C10.4451 20.519 11.1704 20.5897 11.4752 20.7311C12.1301 21.013 12.6442 21.8121 12.9017 22.9395L13.0425 23.5265L13.5576 23.5507L14.0717 23.5739V16.0549L13.5566 16.079L13.0425 16.1023L12.9017 16.6893C12.621 17.8409 12.1533 18.546 11.4511 18.8753C11.1704 19.0149 10.9602 19.039 10.3053 19.0865C9.86063 19.1097 9.22888 19.133 8.92505 19.133H8.33962V17.2772C8.33962 15.4204 8.43317 11.4502 8.50357 10.84V10.4632V10.4632ZM86.4401 23.7125C85.925 22.6558 84.9422 21.9507 82.9293 21.1051C81.2925 20.4232 80.4505 19.9302 79.9586 19.3897C79.5381 18.9432 79.4214 18.5674 79.4677 17.9097C79.514 17.2986 79.6548 16.9228 80.0522 16.4995C80.5431 15.96 81.2453 15.7711 82.0642 15.96C83.3981 16.2409 84.2642 17.1814 85.0126 19.1544C85.2701 19.8595 85.3165 19.8837 85.7842 19.6949L86.089 19.5777V18.7553C86.089 18.3088 86.0649 17.3693 86.0427 16.6642L85.9954 15.3953L85.7611 15.3023C84.5208 14.7851 82.1818 14.4558 80.6608 14.5963C78.9286 14.7609 77.6429 15.3014 76.6591 16.3358C75.6772 17.346 75.2326 18.5442 75.3261 19.9544C75.3965 21.1284 75.7245 21.9507 76.4498 22.7023C77.1047 23.3842 77.666 23.7125 79.2806 24.347C81.8539 25.3581 82.556 25.9684 82.532 27.2139C82.532 28.2716 81.9706 29.0465 80.9646 29.399C80.5904 29.5163 79.678 29.5163 79.1861 29.399C77.9004 29.0697 76.9166 27.9423 76.0746 25.8744L75.8643 25.3349L75.6068 25.3572C75.4669 25.3572 75.2798 25.4046 75.1863 25.4521L75.0223 25.5451L75.0455 26.4623C75.0455 26.9553 75.0686 28.013 75.0918 28.7879L75.139 30.2204L75.4197 30.3386C76.0051 30.5972 77.7827 30.973 78.8823 31.0902C79.0231 31.1144 79.7715 31.1144 80.5672 31.0902C81.9243 31.067 82.041 31.067 82.72 30.879C84.7551 30.3395 86.0658 29.2111 86.6504 27.4958C86.8375 26.9563 86.8606 26.8149 86.8838 26.0158C86.8606 24.9349 86.7671 24.3944 86.4392 23.7125H86.4401ZM70.739 15.1628C69.0309 14.2939 66.3872 14.3646 64.4679 15.3042C62.643 16.1972 61.3805 17.7004 60.6792 19.8158C60.3041 20.92 60.1874 21.7888 60.2346 23.2223C60.2578 24.1153 60.3041 24.5851 60.3976 25.0084C61.1229 28.2502 63.322 30.4353 66.4104 30.9991C67.0893 31.1172 68.6335 31.1172 69.3116 30.9991C70.2944 30.8353 71.4171 30.3888 72.1424 29.8949C73.0085 29.3079 73.8978 28.4149 73.8978 28.133C73.8978 27.9684 73.593 27.5693 73.4763 27.5693C73.43 27.5693 73.1725 27.6865 72.939 27.8511C72.0961 28.4149 71.2772 28.626 70.1304 28.626C68.5631 28.626 67.5803 28.226 66.5743 27.2167C66.1297 26.7702 65.9426 26.5349 65.7314 26.0893C65.2404 25.1256 64.9597 23.9981 64.9134 22.7293L64.8903 22.1888L69.4987 22.1646L74.108 22.1414L74.1312 21.8363C74.1312 21.6716 74.1312 21.2251 74.0849 20.826C73.8042 18.0763 72.6583 16.1497 70.739 15.1637V15.1628ZM66.1065 20.8725L64.9366 20.8967V20.6381C64.9366 20.4967 64.9829 20.1209 65.0301 19.8158C65.4285 17.3014 66.364 15.7972 67.534 15.7972C68.6094 15.7972 69.2653 17.2781 69.4051 20.0037L69.4514 20.7786L68.376 20.8251C67.7674 20.8251 66.7383 20.8493 66.1065 20.8725V20.8725ZM54.0561 14.88C53.6818 14.8102 53.3539 14.787 52.6527 14.8102C51.5763 14.8567 50.851 14.9981 50.0312 15.3739C49.7746 15.4911 49.5403 15.6083 49.5171 15.6083C49.494 15.6083 49.494 13.9879 49.5171 11.9897C49.5403 9.17114 49.5403 8.37207 49.4708 8.37207C49.2596 8.37207 42.919 9.59347 42.8495 9.64091C42.8032 9.68742 42.7791 9.82881 42.7791 10.0167C42.8023 10.3693 42.756 10.346 43.5276 10.5097C43.7619 10.5572 44.0426 10.6744 44.1362 10.7451C44.3937 10.933 44.6039 11.3321 44.7679 11.8967C44.8846 12.3432 44.9078 12.6716 44.955 15.7265C45.0013 18.8511 45.0013 22.0707 44.9087 27.9442L44.8615 30.3879L45.3061 30.4809C45.961 30.6223 47.8562 30.9516 48.4648 31.0223C49.3773 31.1153 51.4828 31.0921 52.1608 30.9981C55.0852 30.5516 57.2852 28.8604 58.3144 26.2521C58.595 25.5711 58.8525 24.4902 58.9461 23.7144C59.0628 22.7981 58.9924 20.9423 58.8294 20.1907C58.2208 17.3479 56.4423 15.3739 54.0561 14.88V14.88ZM49.6107 29.6121C49.5403 29.4009 49.4467 22.0697 49.4708 19.1563L49.494 16.8772L49.9154 16.76C50.2367 16.6807 50.5665 16.6414 50.8973 16.6428C51.4355 16.6428 51.4828 16.666 51.9274 16.8772C53.0038 17.4177 53.7291 18.7339 54.0792 20.7311C54.1969 21.4828 54.22 23.5032 54.1033 24.3963C53.8226 26.5814 53.1205 28.3432 52.1608 29.1888C51.7866 29.5181 51.4355 29.706 50.9909 29.8C50.6639 29.8707 50.5704 29.8707 49.9618 29.8232C49.7283 29.7767 49.6811 29.7535 49.6107 29.6121V29.6121Z" fill="black"/>
</svg>
