<svg width="174" height="40" viewBox="0 0 174 40" fill="none" xmlns="http://www.w3.org/2000/svg">
<path d="M5.29073 20.9852V14.4466L3.30508 15.3806C3.30508 15.3806 2.83798 16.548 2.83798 18.1834C2.95522 19.4671 3.65587 20.9852 4.12204 21.5694L5.29073 20.9852V20.9852ZM11.0132 7.55825C11.4803 7.55825 12.2973 7.79173 12.8816 8.37592C13.465 8.95918 13.5822 9.89406 13.465 10.7108C13.2324 11.4113 13.1151 11.762 12.2973 12.3452C11.5966 12.8122 10.6624 12.8122 10.6624 12.8122V15.9648L12.1809 17.2485L10.6624 18.5331V22.6196C10.6624 22.6196 12.1809 21.6857 13.1151 19.8178C13.1151 19.8178 13.1151 19.7006 13.2315 19.4671C13.3487 20.0513 13.2315 21.1015 12.648 22.3862C12.1657 23.4706 11.3468 24.3709 10.3125 24.9536C8.4432 26.0048 7.1582 26.0048 5.64152 25.7722C3.88942 25.4215 2.37088 24.4875 1.32036 22.7359C0.619712 21.5685 0.268921 20.2848 0.268921 18.7666C0.386162 15.8475 2.48812 13.3964 4.93994 12.4624C5.29073 12.3452 5.40704 12.2289 5.75783 12.2289C5.52428 12.3452 5.29073 12.5787 5.05718 12.6959C4.23928 13.1629 3.53863 14.2131 3.30508 15.0308L8.09334 12.9285V19.7006L4.23928 21.6857C4.70639 22.2689 5.99138 23.2029 7.15913 23.3201C9.14478 23.5527 10.3125 22.7359 10.3125 22.7359V18.2996L8.79399 17.0159L10.3125 15.7313V12.5787C9.49464 12.4624 8.4432 12.2289 7.85979 12.1117C7.04189 11.8792 4.12297 11.0606 3.65587 11.0606C3.18877 10.9443 2.60443 11.0606 2.25457 11.295C1.90378 11.6448 1.67023 12.1117 1.90378 12.5787C2.02102 12.8122 2.13733 13.0457 2.37088 13.1629C2.37088 13.1629 2.25457 13.1629 1.90378 12.9294C1.43667 12.6959 0.969573 12.1117 0.969573 11.295C0.853263 10.2438 1.32036 9.30987 2.13733 8.72569C2.83798 8.25871 3.77218 7.90894 4.70639 8.02522C6.10769 8.25871 8.09334 9.07639 9.72819 9.42615C10.4288 9.54336 10.8959 9.66057 11.363 9.42615C11.5966 9.30987 11.9474 8.8429 11.5966 8.37592C11.2467 7.79173 10.5452 7.79173 9.96175 7.67546C10.5461 7.44197 10.6624 7.44197 11.0132 7.55825V7.55825ZM29.8145 19.2345L27.5962 20.8689V15.4978L29.8145 19.2345ZM29.8145 14.0968C29.8145 14.0968 28.2969 15.0308 27.3627 15.615C26.3112 16.1982 25.0272 16.8987 25.0272 16.8987V23.0866L24.093 23.7871L24.2093 23.9043L25.0272 23.2038L27.7125 25.655L32.5008 21.9192L32.3836 21.8029L29.8154 23.9043L27.7125 21.9192V21.2187L32.0337 18.0671L29.8145 14.0968V14.0968ZM17.3191 27.9908C18.3544 28.2008 19.4306 28.0356 20.3552 27.5248C21.8738 26.8243 22.5744 25.1899 22.5744 23.6717L22.6907 21.4541V16.5489L23.6249 15.8485L23.5086 15.7322L22.5744 16.4327L20.4715 14.0978L17.7862 16.4327V8.37685L14.2829 11.0615C14.3992 11.1787 14.8663 11.2959 14.9836 11.8792V23.0885L13.5822 24.1396L13.6986 24.2559L14.2829 23.7889L16.2676 25.5396L19.3047 23.0885L19.1875 22.9713L18.4868 23.5555L17.6689 22.855V16.6671L18.6031 15.9666L19.8881 17.601V22.9713C19.8881 24.3722 19.8881 26.1238 19.0712 27.0578C18.3696 27.7582 18.136 27.8745 17.3191 27.9917V27.9908ZM38.5731 27.5275C37.4054 27.4103 36.821 26.5936 36.821 26.0094C36.821 25.6596 37.1718 24.9582 37.8725 24.842C38.5731 24.7257 39.3901 25.0755 39.9744 25.8931L42.777 22.7406V22.6243L42.0764 23.441C41.2585 22.5071 40.208 22.0401 39.1565 21.8066V12.3499L46.5138 25.6596C46.5138 25.6596 46.6311 25.7759 46.8646 25.7759C47.0973 25.7759 47.0973 25.5434 47.0973 25.5434V12.1155C47.6816 12.1155 48.6158 11.7648 49.0829 11.2978C50.4842 9.89685 49.9008 8.26243 49.7836 8.14615C49.6672 8.84662 49.2001 9.54708 48.2659 9.54708C47.0982 9.54708 46.3975 8.72941 46.3975 8.72941L43.5931 12.0001L43.4767 12.1173L44.2946 11.1834C45.2288 12.1173 46.0458 12.2345 46.7465 12.2345V20.0559L41.2576 10.2494C40.7905 9.43173 39.9735 8.73127 38.8057 8.73127C37.4044 8.73127 36.4702 9.89871 36.353 10.9499C36.2357 12.1173 36.353 12.3508 36.353 12.3508C36.353 12.3508 36.5865 11.0671 37.4044 11.0671C38.1051 11.0671 38.4559 11.7666 38.8057 12.2336V15.0364C38.1051 15.0364 36.1194 15.1527 36.0022 17.1378C36.0022 17.8382 36.4702 18.655 36.821 18.8885C37.0903 19.0955 37.4152 19.2176 37.7543 19.2392C37.7543 19.2392 37.1709 18.8885 37.2872 18.3052C37.4044 17.721 38.6885 17.6048 38.6885 17.8382V21.9238C38.1051 21.9238 36.2357 21.9238 35.4188 23.5592C34.9517 24.4931 34.9517 25.6606 35.5351 26.361C36.1194 26.9443 36.9373 27.762 38.5722 27.5285L38.5731 27.5275ZM54.1066 19.2345L51.8874 20.8689V15.4978L54.1066 19.2345ZM53.9893 14.0968C53.9893 14.0968 52.4717 15.0308 51.5375 15.615C50.4861 16.1982 49.202 16.8987 49.202 16.8987V23.0866L48.3841 23.7871L48.5004 23.9043L49.3192 23.2038L52.0046 25.655L56.7919 21.9192L56.6756 21.8029L54.1066 23.9043L52.0037 21.9192V21.2187L56.3248 18.0671L53.9893 14.0968V14.0968ZM60.6432 25.7694L58.3077 23.7852L57.2562 24.4857L57.1399 24.3685L58.1914 23.668V18.2978C58.1914 16.0792 56.2057 16.6634 56.323 14.3285C56.323 13.2773 57.3744 12.4606 57.8406 12.2262C58.4249 11.9936 59.0083 11.9936 59.0083 11.9936C59.0083 11.9936 58.0741 12.5769 58.3077 13.3945C58.6585 14.6782 60.8768 14.7955 60.994 16.5462V22.6178L62.6288 23.9015L63.0959 23.5517V16.8968L62.1617 16.0792L64.4973 13.9778L66.6001 15.8457L65.7813 16.7796V22.6178L67.767 24.2522L68.1178 24.0187V16.8968L67.1836 16.0792L69.5191 13.9778L71.7383 15.7294L72.5552 14.9117L72.6725 15.0289L70.6868 16.7796V22.5006L65.665 25.5359L63.2132 23.7852L60.6432 25.7694V25.7694ZM162.477 19.2345L160.258 20.8689V15.4978L162.477 19.2345ZM162.477 14.0968C162.477 14.0968 160.959 15.0308 160.024 15.615C158.974 16.1982 157.689 16.8987 157.689 16.8987V23.0866L156.754 23.7871L156.872 23.9043L157.689 23.2038L160.375 25.655L165.163 21.9192L165.046 21.8029L162.477 23.9043L160.375 21.9192V21.2187L164.696 18.0671L162.477 14.0968V14.0968ZM140.171 16.7815L140.288 16.8987L141.222 16.082L142.507 17.5992V22.7368L141.923 23.3201L143.908 25.655L146.127 23.5536L145.193 22.6196V16.4317L145.777 16.082L147.178 17.7164V22.8531L146.595 23.4373L148.579 25.655L150.681 23.5536L149.864 22.7368V16.4317L150.448 15.9648L151.966 17.7164V22.8531L151.499 23.3201L153.601 25.655L156.521 22.9703L156.404 22.8531L155.703 23.5536L154.653 22.2699V16.4317L155.587 15.7313L155.469 15.4987L154.535 16.3155L152.55 14.0968L149.747 16.3155L147.762 14.2131L145.076 16.3155L143.09 14.2131L140.171 16.7824V16.7815Z" fill="black"/>
<path d="M134.335 16.5471L134.452 16.6634L135.152 16.0792L136.437 17.4801V23.3183L135.503 24.0187L135.62 24.135L136.554 23.4345L138.423 25.6531L141.226 23.201L141.108 23.0848L140.291 23.7852L139.124 22.5015V16.6634L140.058 15.8457L139.941 15.7294L139.124 16.5471L137.021 14.2122L134.335 16.5471ZM135.15 11.6448L137.252 9.77686L138.887 11.6448L136.784 13.5127L135.15 11.6448Z" fill="black"/>
<path d="M126.622 20.9852V14.4465L124.636 15.3805C124.636 15.3805 124.169 16.5489 124.169 18.1833C124.286 19.467 124.987 20.9852 125.454 21.5693L126.622 20.9852V20.9852ZM132.344 7.5591C132.811 7.5591 133.628 7.79166 134.213 8.37585C134.796 8.96003 134.913 9.89399 134.796 10.7107C134.562 11.4112 134.446 11.7619 133.628 12.3452C132.928 12.8121 131.993 12.8121 131.993 12.8121V15.9647L133.512 17.2484L131.993 18.5331V22.6196C131.993 22.6196 133.512 21.6856 134.446 19.8177C134.446 19.8177 134.446 19.7005 134.562 19.467C134.68 20.0512 134.562 21.1014 133.979 22.3861C133.497 23.4704 132.678 24.3707 131.644 24.9535C129.774 26.0047 128.49 26.0047 126.972 25.7721C125.22 25.4214 123.702 24.4875 122.651 22.7358C121.951 21.5684 121.6 20.1684 121.6 18.6503C121.717 15.7312 123.819 13.2791 126.271 12.3452C126.622 12.2289 126.738 12.1126 127.089 12.1126C126.855 12.2289 126.622 12.4624 126.388 12.5786C125.57 13.0456 124.87 14.0968 124.636 14.9135L129.424 12.8121V19.5842L125.57 21.5684C126.037 22.1526 127.322 23.0865 128.49 23.2028C130.476 23.4363 131.644 22.6196 131.644 22.6196V18.1824L130.125 16.8986L131.644 15.6149V12.4614C130.826 12.3452 129.774 12.1117 129.191 11.9954C128.373 11.7619 125.454 10.9442 124.987 10.9442C124.52 10.8279 123.935 10.9442 123.586 11.1777C123.235 11.5284 123.001 11.9954 123.235 12.4614C123.352 12.6958 123.468 12.9293 123.702 13.0456C123.702 13.0456 123.586 13.0456 123.235 12.8131C122.651 12.4624 122.301 11.8782 122.184 11.0614C122.067 10.0103 122.534 9.07631 123.352 8.49306C124.053 8.02608 124.987 7.67538 125.921 7.79259C127.322 8.02515 129.307 8.84376 130.943 9.19352C131.644 9.3098 132.111 9.42608 132.578 9.19352C132.811 9.07631 133.161 8.60934 132.811 8.14236C132.46 7.5591 131.76 7.5591 131.176 7.44189C131.877 7.44189 131.993 7.44189 132.344 7.5591V7.5591ZM168.553 15.3814V18.4186L169.603 19.3526C169.603 19.3526 171.823 17.601 172.64 15.8503C172.64 15.8503 171.589 17.2512 170.304 16.7833C169.254 16.4335 168.553 15.3824 168.553 15.3824V15.3814ZM166.1 23.5545C166.1 23.5545 167.034 21.92 168.786 22.2707C170.421 22.6205 171.005 24.2549 171.005 24.2549V20.2856L169.837 19.3517C168.553 20.6354 166.334 22.387 166.1 23.5545ZM167.735 26.4726C167.385 26.5898 166.1 26.24 165.749 24.8382C165.4 23.4372 166.334 22.5033 167.852 21.1024L166.1 19.5852V16.6661C166.1 16.6661 167.385 16.0819 168.319 15.3824C169.254 14.7982 170.304 14.0977 170.304 14.0977C170.304 14.0977 171.005 15.0317 171.823 14.9145C173.107 14.7982 173.107 13.747 172.99 13.5135C173.224 13.8642 173.807 15.0317 171.472 17.7172L173.34 19.2345V23.0875C173.34 23.0875 171.238 24.2549 169.136 25.6558C169.136 25.6558 167.969 24.2549 167.034 24.9554C166.451 25.4224 166.801 26.1228 167.735 26.4726ZM93.1095 22.1554L95.5623 24.374V17.7191L93.1095 15.5005V22.1554V22.1554ZM98.0141 16.6679L98.832 15.8512L98.9483 15.9675L98.2476 16.7852V22.9731C98.2476 22.9731 96.73 23.7898 95.6786 24.374C94.6281 24.9572 93.4594 25.6577 93.4594 25.6577L90.6568 23.3228L89.9561 24.0233L89.6063 23.7907L90.4232 23.0893V16.4345C90.4232 16.4345 91.7073 15.8512 92.876 15.1507C93.5915 14.7476 94.2926 14.3195 94.9779 13.867L98.0141 16.6679V16.6679ZM103.618 16.0791L105.37 14.2112C105.37 14.2112 105.603 14.4447 105.837 14.5619C105.954 14.6782 106.537 14.9117 107.004 14.6782C107.239 14.5619 107.355 14.4456 107.589 14.2112C107.706 15.6121 107.004 16.6633 106.07 17.014C105.72 17.1303 104.669 17.481 103.618 16.1954V22.8512L104.786 23.9024L105.72 23.0838L105.837 23.201L103.034 25.6531L100.699 23.5507L99.8816 24.3693L99.7643 24.2521L101.049 23.0847V17.3638L100.115 16.08L99.2972 16.7796H99.1809L102.1 14.2121L103.618 16.0791V16.0791ZM111.211 18.8838L114.597 14.0968C114.597 14.0968 115.064 14.5638 115.765 14.7972C116.816 15.0307 117.751 14.0968 117.751 14.0968C117.633 15.3805 116.933 16.8986 115.531 17.1331C114.364 17.3656 113.196 16.4317 113.196 16.4317L112.962 16.7824L117.633 23.787L118.567 22.9703L118.685 23.0865L115.531 25.8884L111.211 18.8838V18.8838Z" fill="black"/>
<path d="M108.527 12.3498C108.527 11.2986 108.06 10.7153 107.592 10.7153L111.213 8.14697V22.6233L112.147 23.6744L112.848 23.0902L112.964 23.2065L110.045 25.7749L108.06 23.7907L107.243 24.4912L107.125 24.374L108.527 23.2065V12.3498ZM85.1697 16.4326C85.1697 16.4326 84.8189 16.8995 84.1183 16.8995C83.5349 16.8995 83.0668 16.4326 83.0668 16.4326V18.4186C83.0668 18.4186 83.5349 17.9516 84.1183 17.9516C84.7026 17.9516 85.1697 18.4186 85.1697 18.4186V16.4335V16.4326ZM85.1697 12.2298L83.7684 10.946L83.0678 11.5293V16.1991C83.0678 16.1991 83.5349 16.7833 84.1192 16.7833C84.7026 16.7833 85.1697 16.3163 85.1697 16.3163V12.2298V12.2298ZM83.0668 25.306C83.0668 25.306 83.8857 25.5386 84.5854 25.0726C85.286 24.4884 85.1697 23.6716 85.1697 23.6716V18.6512C85.1697 18.6512 84.8189 18.1842 84.1183 18.1842C83.5349 18.1842 83.0668 18.7674 83.0668 18.7674V25.306V25.306ZM78.0469 12.1116C78.0469 11.1777 77.6961 10.5944 76.9954 10.5944C76.0612 10.5944 75.8277 11.8781 75.8277 11.8781C75.8277 11.8781 75.7114 10.827 76.5283 10.0102C76.9954 9.54325 77.9297 8.84279 79.2146 9.07627C80.616 9.42697 81.0831 10.4772 81.0831 11.5284V24.9544C81.0831 24.9544 81.6665 25.0716 82.0173 25.0716C82.4844 25.1879 82.8342 25.3042 82.8342 25.3042V9.07813H83.0687V11.2967L85.9876 8.96186L88.0905 10.8298L89.141 10.0121L89.2573 10.1293L88.2059 10.946V23.4391C88.2059 24.2558 87.9733 25.0735 87.2726 25.5405C85.5205 26.5916 83.5358 25.4233 81.6665 25.0735C80.2652 24.84 78.1632 24.6065 77.5798 25.8902C77.3462 26.3572 77.4625 26.9414 78.0469 27.4084C79.331 28.2251 84.8208 26.0074 86.8055 26.9414C88.5567 27.7581 88.5567 29.0428 88.3231 29.8595C87.856 31.4949 85.755 31.8446 85.755 31.8446C85.755 31.8446 86.8055 31.2614 86.4547 30.3265C86.3384 29.8595 85.9876 29.7433 84.9371 29.8595C82.6016 30.093 79.6817 31.2614 77.8133 30.4437C76.8791 29.9767 76.1785 28.8093 76.1785 27.6419C76.1785 25.8902 78.2804 25.1898 78.2804 25.1898V18.7684C78.2804 18.5358 77.1127 18.5358 76.8791 19.0019C76.5283 19.7023 77.3462 20.053 77.3462 20.053C77.3462 20.053 76.6456 20.1693 76.1785 19.4688C75.9449 19.1191 75.3606 18.0679 76.0612 17.0177C76.6456 16.2 77.3453 16.0837 78.2804 15.9665V12.1135H78.0469V12.1116Z" fill="black"/>
</svg>
