<svg width="174" height="40" viewBox="0 0 174 40" fill="none" xmlns="http://www.w3.org/2000/svg">
<path d="M65.3236 17.3314V28.1304H61.3774V17.3304H57.3856V13.8923H69.3032V17.3304H65.3236V17.3314ZM78.5262 23.8393H72.2575C72.3813 25.0225 73.0689 25.5416 74.0719 25.5416C75.0089 25.5416 75.7868 25.3379 76.8355 24.7853L78.2331 27.1295C76.9136 27.9081 75.5495 28.3481 73.8812 28.3481C70.6673 28.3481 68.8975 26.0709 68.8975 22.7909C68.8975 19.1044 70.9725 17.2225 73.7798 17.2225C76.7108 17.2225 78.5373 19.15 78.5373 23.1174C78.5373 23.4337 78.5373 23.6588 78.5262 23.8393V23.8393ZM73.6783 19.9388C72.8437 19.9388 72.3813 20.5137 72.2575 21.5621H75.3132C75.1215 20.4914 74.7605 19.9388 73.6783 19.9388ZM85.3354 28.3583C82.2016 28.3583 80.3294 26.363 80.3294 22.7676C80.3294 19.4876 81.9978 17.2328 85.4145 17.2328C87.4327 17.2328 88.5828 18.1686 89.5179 19.6681L86.9926 21.5844C86.4855 20.6486 86.1366 20.1983 85.3466 20.1983C84.4115 20.1983 83.9378 21.1332 83.9378 22.8235C83.9378 24.5146 84.4449 25.3825 85.448 25.3825C86.1366 25.3825 86.6325 24.9993 87.2978 23.9965L89.6203 25.8104C88.38 27.6486 87.2289 28.3593 85.3354 28.3593V28.3583ZM97.8188 28.1304V22.0672C97.8188 20.6811 97.3563 20.3202 96.6008 20.3202C95.8229 20.3202 95.3604 20.6802 95.3604 22.0328V28.1314H91.6962V14.7723L95.3604 13.3081V18.1658C96.0369 17.6588 96.7813 17.23 98.0439 17.23C100.389 17.23 101.505 18.7974 101.505 21.6039V28.1304H97.8188V28.1304Z" fill="black"/>
<path d="M110.267 28.3611C106.039 28.3611 103.772 25.2272 103.772 21.0225C103.772 16.4458 106.455 13.6849 110.278 13.6849C113.773 13.6849 115.16 15.1955 116.141 17.8774L112.567 19.2644C112.059 17.9453 111.574 17.1118 110.267 17.1118C108.621 17.1118 107.91 18.7574 107.91 21.0114C107.91 23.1872 108.597 24.9118 110.311 24.9118C111.552 24.9118 112.082 24.2355 112.849 22.8932L116.186 24.6635C115.238 26.5462 113.649 28.3611 110.267 28.3611V28.3611ZM125.191 21.4821C124.728 20.9751 124.198 20.5918 123.488 20.5918C122.597 20.5918 122.045 21.0197 122.045 22.3165V28.1323H118.381V17.4579H122.045V18.2355C122.677 17.6272 123.387 17.2439 124.323 17.2439C125.1 17.2439 125.619 17.4244 126.048 17.6951L125.191 21.4821V21.4821ZM133.897 28.1342V27.4244C133.244 27.9314 132.477 28.3602 131.237 28.3602C128.891 28.3602 127.776 26.7937 127.776 23.9862V17.4607H131.462V23.5249C131.462 24.9109 131.925 25.2718 132.68 25.2718C133.436 25.2718 133.897 24.9109 133.897 23.5583V17.4607H137.585V28.1342H133.897V28.1342ZM146.346 28.1332V22.0681C146.346 20.6821 145.884 20.3221 145.128 20.3221C144.35 20.3221 143.889 20.6821 143.889 22.0346V28.1332H140.224V17.4588H143.889V18.1686C144.565 17.6616 145.309 17.2328 146.571 17.2328C148.917 17.2328 150.033 18.8002 150.033 21.6067V28.1332H146.346V28.1332ZM157.169 28.3583C154.034 28.3583 152.163 26.363 152.163 22.7676C152.163 19.4876 153.831 17.2328 157.248 17.2328C159.266 17.2328 160.416 18.1686 161.351 19.6681L158.826 21.5844C158.319 20.6486 157.969 20.1983 157.18 20.1983C156.244 20.1983 155.77 21.1332 155.77 22.8235C155.77 24.5146 156.278 25.3825 157.281 25.3825C157.969 25.3825 158.465 24.9993 159.13 23.9965L161.452 25.8104C160.212 27.6486 159.063 28.3593 157.169 28.3593V28.3583ZM169.651 28.1304V22.0672C169.651 20.6811 169.189 20.3202 168.434 20.3202C167.656 20.3202 167.194 20.6802 167.194 22.0328V28.1314H163.529V14.7723L167.194 13.3081V18.1658C167.87 17.6588 168.614 17.23 169.877 17.23C172.222 17.23 173.338 18.7974 173.338 21.6039V28.1304H169.651V28.1304Z" fill="#5C5C5C"/>
<path d="M0.269851 7.7998V15.9375H8.4097V32.2045H16.5384V15.9375H24.6792V7.7998H0.268921H0.269851Z" fill="black"/>
<path d="M32.8069 24.0649V15.9375H24.6764V32.2026H49.0755V24.064H32.8069V24.0649ZM49.0801 7.7998H32.8088V15.9375H49.0792V7.7998H49.0801Z" fill="black"/>
</svg>
