<svg width="108" height="36" viewBox="0 0 108 36" fill="none" xmlns="http://www.w3.org/2000/svg">
<path fill-rule="evenodd" clip-rule="evenodd" d="M56.9193 9.45707C56.9193 10.6986 55.9381 11.6874 54.7284 11.6874C53.5094 11.6874 52.5374 10.6886 52.5374 9.45707C52.5374 8.21632 53.4809 7.22674 54.7284 7.22674C55.3136 7.23533 55.8718 7.47431 56.282 7.89184C56.6922 8.30937 56.9212 8.87178 56.9193 9.45707ZM47.88 13.9562V14.5088C47.88 14.5088 46.8326 13.1324 44.604 13.1324C40.927 13.1324 38.0604 15.9831 38.0604 19.9297C38.0604 23.847 40.8985 26.727 44.604 26.727C46.8611 26.727 47.88 25.3205 47.88 25.3205V25.9024C47.88 26.1745 48.0809 26.3879 48.3572 26.3879H51.0899V13.4706H48.3572C48.0809 13.4706 47.8808 13.7134 47.8808 13.9562H47.88ZM47.88 22.2371C47.3752 22.9939 46.3655 23.6436 45.1465 23.6436C42.9848 23.6436 41.3372 22.2664 41.3372 19.9297C41.3372 17.5931 42.9949 16.2159 45.1465 16.2159C46.327 16.2159 47.4045 16.904 47.88 17.6224V22.2371ZM53.1092 13.4715H56.3475V26.3871H53.1092V13.4715ZM101.485 13.1324C99.2562 13.1324 98.2088 14.5096 98.2088 14.5096V7.25604H94.9705V26.3871H97.704C97.9702 26.3871 98.1804 26.1443 98.1804 25.9024V25.3205C98.1804 25.3205 99.2277 26.727 101.456 26.727C105.133 26.727 108 23.837 108 19.9289C108 16.0216 105.123 13.1324 101.485 13.1324ZM100.942 23.6042C99.6949 23.6042 98.7137 22.9546 98.2088 22.1986V17.5931C98.7137 16.904 99.7895 16.1866 100.942 16.1866C103.104 16.1866 104.752 17.5638 104.752 19.9004C104.762 22.2371 103.104 23.6042 100.942 23.6042ZM93.2844 18.7275V26.4164H90.046V19.1051C90.046 16.9719 89.3696 16.1187 87.5503 16.1187C86.5691 16.1187 85.5603 16.6328 84.9215 17.3888V26.3871H81.6832V13.4715H84.2459C84.5121 13.4715 84.7214 13.7143 84.7214 13.9571V14.5096C85.6649 13.5108 86.9124 13.1324 88.1598 13.1324C89.5789 13.1324 90.7602 13.5393 91.7029 14.3631C92.8465 15.3334 93.2844 16.565 93.2844 18.7275ZM73.8159 13.1324C71.5872 13.1324 70.5399 14.5096 70.5399 14.5096V7.25604H67.3007V26.3871H70.0351C70.3013 26.3871 70.5106 26.1443 70.5106 25.9024V25.3205C70.5106 25.3205 71.5588 26.727 73.7874 26.727C77.4636 26.727 80.3311 23.837 80.3311 19.9289C80.3687 16.0216 77.5013 13.1324 73.8159 13.1324ZM73.2826 23.6042C72.0352 23.6042 71.0539 22.9546 70.5491 22.1986V17.5931C71.0539 16.904 72.1298 16.1866 73.2826 16.1866C75.4451 16.1866 77.0919 17.5638 77.0919 19.9004C77.0919 22.2371 75.4351 23.6042 73.2826 23.6042ZM64.5103 13.1324C65.4915 13.1324 65.9964 13.3066 65.9964 13.3066V16.3615C65.9964 16.3615 63.3006 15.4306 61.6152 17.3888V26.4265H58.3761V13.4706H61.1104C61.3766 13.4706 61.5859 13.7134 61.5859 13.9562V14.5088C62.177 13.7804 63.5006 13.1316 64.5103 13.1316V13.1324ZM30.8687 25.2234C30.6979 24.8165 30.5355 24.3611 30.3647 23.9826C30.0977 23.3623 29.8214 22.7804 29.5928 22.2279L29.5552 22.1885C27.1934 16.9553 24.7067 11.7793 22.0973 6.66497L22.0019 6.47074C21.7262 5.93702 21.4563 5.40034 21.1923 4.86079C20.8591 4.24125 20.5158 3.59074 19.9733 2.97037C18.8958 1.59316 17.3445 0.837158 15.6868 0.837158C14.0006 0.837158 12.4769 1.59316 11.3718 2.90255C10.867 3.52293 10.4961 4.1726 10.1528 4.79297C9.8866 5.34553 9.61032 5.88972 9.34325 6.40293L9.24781 6.60637C6.64827 11.7552 4.12409 16.9819 1.78995 22.1307L1.75227 22.1986C1.52371 22.7511 1.24743 23.333 0.980364 23.9533C0.809574 24.3318 0.647155 24.7386 0.476364 25.1949C0.0376665 26.465 -0.0954498 27.6672 0.0661316 28.9088C0.437853 31.4874 2.12399 33.6499 4.44809 34.6102C5.31151 34.9805 6.24209 35.1686 7.18157 35.1627C7.44781 35.1627 7.79106 35.1242 8.05729 35.0949C9.17162 34.9593 10.3152 34.5809 11.4296 33.9312C12.811 33.1459 14.1254 32.0115 15.6106 30.363C17.0966 32.0115 18.4487 33.1459 19.7916 33.9312C20.9059 34.5809 22.0496 34.9593 23.1639 35.0949C23.4301 35.1334 23.7734 35.1627 24.0396 35.1627C24.9832 35.1627 25.9259 34.9878 26.7739 34.6102C29.1357 33.6499 30.7926 31.4489 31.1551 28.9088C31.4498 27.6965 31.3074 26.4943 30.8687 25.2234ZM15.6583 27.0083C13.8391 24.6708 12.6578 22.4706 12.2484 20.6179C12.0767 19.8326 12.0483 19.1444 12.1437 18.5232C12.2079 18.0057 12.3938 17.5108 12.6862 17.079C13.325 16.148 14.4109 15.5662 15.6583 15.5662C16.9058 15.5662 18.0201 16.1187 18.6304 17.079C18.9204 17.5121 19.106 18.0064 19.1729 18.5232C19.2776 19.1444 19.2399 19.8619 19.0683 20.6179C18.658 22.4413 17.4776 24.6424 15.6583 27.0083ZM29.1165 28.6275C28.8787 30.4107 27.6974 31.9629 26.0498 32.6419C25.2402 32.981 24.3636 33.0881 23.4879 32.981C22.6398 32.8746 21.8018 32.6026 20.926 32.0885C19.7062 31.4003 18.4965 30.3337 17.0774 28.7531C19.306 25.9702 20.6489 23.4301 21.163 21.1613C21.3814 20.2046 21.4397 19.2184 21.3354 18.2427C21.2128 17.404 20.8998 16.6044 20.4204 15.9053C19.373 14.3639 17.6207 13.4715 15.6675 13.4715C13.7152 13.4715 11.9528 14.4025 10.9147 15.9053C10.4383 16.5943 10.1436 17.3787 10.0005 18.2419C9.85652 19.2165 9.91495 20.2103 10.1721 21.1613C10.6769 23.4301 12.0583 26.0003 14.2577 28.7824C12.8771 30.363 11.6288 31.4296 10.4099 32.1178C9.53413 32.6319 8.68604 32.9031 7.84799 33.0103C6.97909 33.1082 6.09943 32.9915 5.28613 32.6704C4.46806 32.3284 3.75414 31.7777 3.2158 31.0732C2.67746 30.3687 2.33359 29.5351 2.2186 28.656C2.10317 27.7525 2.20802 26.8344 2.52418 25.9802C2.62883 25.6412 2.79041 25.292 2.96204 24.8843C3.19981 24.3318 3.46688 23.7499 3.73311 23.168L3.77162 23.1011C6.11063 17.898 8.57837 12.7537 11.1726 7.67297L11.2772 7.46953C11.5434 6.95548 11.8197 6.40293 12.0868 5.88888C12.353 5.33632 12.6578 4.82227 13.0295 4.37604C13.7344 3.55223 14.6872 3.106 15.7253 3.106C16.7726 3.106 17.7153 3.55223 18.4211 4.37604C18.792 4.82227 19.0967 5.33632 19.363 5.88888C19.63 6.40293 19.9063 6.95548 20.1734 7.46953L20.278 7.67297C22.8345 12.7803 25.2985 17.9333 27.6689 23.1295V23.168C27.936 23.7206 28.1738 24.3318 28.4408 24.8843C28.6116 25.292 28.774 25.6412 28.8787 25.9802C29.155 26.8719 29.2504 27.7258 29.1165 28.6275Z" fill="black"/>
</svg>
