<svg width="138" height="28" viewBox="0 0 138 28" fill="none" xmlns="http://www.w3.org/2000/svg">
<path d="M8.18298 19.121C5.42131 19.121 3.81884 16.9442 3.81884 14.4887C3.81884 11.6422 5.64211 9.74421 8.18298 9.74421C9.50862 9.74421 10.3927 10.3026 11.2207 10.805L12.5463 8.40468C11.6079 7.791 10.0054 7.06514 8.34858 7.06514C3.98444 7.06514 0.836365 10.1904 0.836365 14.4887C0.836365 18.73 4.03964 21.9114 8.34858 21.9114C10.1719 21.9114 11.4975 21.1303 12.5471 20.5166L11.2198 18.1163C10.3918 18.6747 9.17658 19.121 8.18215 19.121H8.18298ZM17.5185 0.534912H20.3353V21.5212H17.5185V0.534912ZM36.575 7.51138L36.2438 8.73956C35.4702 7.90235 33.8685 7.06514 32.1565 7.06514C28.6764 7.06514 25.4723 9.85556 25.4723 14.3765C25.4723 19.0649 28.6756 21.9114 32.1565 21.9114C33.8685 21.9114 35.415 21.0742 36.2438 20.237L36.575 21.5212H38.9503V7.56747H36.575V7.51138ZM36.299 14.6C36.299 17.7814 34.3653 19.2323 32.5429 19.2323C30.6644 19.2323 28.5108 17.9489 28.5108 14.4326C28.5108 12.1997 29.6708 9.80031 32.3221 9.80031C34.3101 9.80031 36.299 11.4186 36.299 14.4326V14.6ZM49.0034 15.716C50.9371 16.2184 51.7659 16.6093 51.7659 17.614C51.7659 18.3951 51.1027 19.1771 49.5562 19.1771C48.1202 19.1771 46.9601 18.6747 45.8553 18.0602L44.584 20.4605C45.5793 21.0742 47.7329 21.9114 49.5562 21.9114C52.6491 21.9114 54.4724 19.7907 54.4724 17.6701C54.4724 13.9864 50.8819 13.4279 49.9426 13.0931C47.9546 12.5346 47.4569 12.1445 47.4569 11.3073C47.4569 10.414 48.2306 9.80031 49.6666 9.80031C50.9371 9.80031 51.8763 10.1904 52.7603 10.6375L54.086 8.23724C52.8147 7.67882 51.3235 7.12124 49.6666 7.12124C46.6281 7.12124 44.8057 9.29798 44.8057 11.3073C44.7505 14.4887 47.4569 15.3259 49.0042 15.716H49.0034ZM64.083 15.716C66.0167 16.2184 66.8455 16.6093 66.8455 17.614C66.8455 18.3951 66.1831 19.1771 64.6359 19.1771C63.1998 19.1771 62.0398 18.6747 60.9349 18.0602L59.6645 20.4605C60.6589 21.0742 62.8134 21.9114 64.6359 21.9114C67.7296 21.9114 69.552 19.7907 69.552 17.6701C69.552 13.9864 65.9615 13.4279 65.0231 13.0931C63.0342 12.5346 62.5374 12.1445 62.5374 11.3073C62.5374 10.414 63.3102 9.80031 64.7463 9.80031C66.0175 9.80031 66.9559 10.1904 67.84 10.6375L69.1656 8.23724C67.8952 7.67882 66.4039 7.12124 64.7463 7.12124C61.7086 7.12124 59.8853 9.29798 59.8853 11.3073C59.8301 14.4887 62.5366 15.3259 64.0839 15.716H64.083ZM81.7604 7.06514C80.0484 7.06514 78.5019 7.90235 77.6731 8.73956L77.3419 7.45612H74.9666V27.3256H77.6179V20.4044L77.7283 20.3491C78.5019 21.1864 80.0484 21.8561 81.5396 21.8561C85.1301 21.8561 88.4446 19.5119 88.4446 14.3212C88.4998 9.63286 85.2957 7.06514 81.7604 7.06514ZM81.4292 19.2323C79.6059 19.2323 77.6731 17.7814 77.6731 14.6V14.4326C77.6731 11.3625 79.662 9.80031 81.65 9.80031C84.3013 9.80031 85.4613 12.1997 85.4613 14.4326C85.4613 17.9489 83.3077 19.2323 81.43 19.2323H81.4292ZM104.187 7.51138L103.856 8.79566C103.083 7.95845 101.481 7.12124 99.7681 7.12124C96.288 7.12124 93.0848 9.91166 93.0848 14.4326C93.0848 19.121 96.288 21.9675 99.7681 21.9675C101.481 21.9675 103.027 21.1303 103.856 20.2931L104.187 21.5765H106.563V7.62356H104.187V7.51138ZM103.911 14.6C103.911 17.7814 101.978 19.2323 100.155 19.2323C98.2769 19.2323 96.1224 17.9489 96.1224 14.4326C96.1224 12.1997 97.2825 9.80031 99.9337 9.80031C101.923 9.80031 103.911 11.4186 103.911 14.4326V14.6ZM116.616 15.716C118.55 16.2184 119.378 16.6093 119.378 17.614C119.378 18.3951 118.715 19.1771 117.168 19.1771C115.732 19.1771 114.572 18.6747 113.467 18.0602L112.197 20.4605C113.191 21.0742 115.345 21.9114 117.168 21.9114C120.262 21.9114 122.084 19.7907 122.084 17.6701C122.084 13.9864 118.494 13.4279 117.555 13.0931C115.566 12.5346 115.069 12.1445 115.069 11.3073C115.069 10.414 115.842 9.80031 117.279 9.80031C118.55 9.80031 119.488 10.1904 120.372 10.6375L121.698 8.23724C120.427 7.67882 118.936 7.12124 117.279 7.12124C114.241 7.12124 112.418 9.29798 112.418 11.3073C112.362 14.4887 115.069 15.3259 116.616 15.716ZM131.695 15.716C133.629 16.2184 134.458 16.6093 134.458 17.614C134.458 18.3951 133.795 19.1771 132.248 19.1771C130.812 19.1771 129.652 18.6747 128.547 18.0602L127.277 20.4605C128.271 21.0742 130.425 21.9114 132.248 21.9114C135.341 21.9114 137.164 19.7907 137.164 17.6701C137.164 13.9864 133.574 13.4279 132.635 13.0931C130.647 12.5346 130.149 12.1445 130.149 11.3073C130.149 10.414 130.923 9.80031 132.359 9.80031C133.629 9.80031 134.568 10.1904 135.452 10.6375L136.778 8.23724C135.508 7.67882 134.016 7.12124 132.359 7.12124C129.32 7.12124 127.498 9.29798 127.498 11.3073C127.443 14.4887 130.149 15.3259 131.695 15.716Z" fill="black"/>
</svg>
