<svg width="144" height="28" viewBox="0 0 144 28" fill="none" xmlns="http://www.w3.org/2000/svg">
<path fill-rule="evenodd" clip-rule="evenodd" d="M0.655533 27.6512V0.0233154H29.3634V27.6512H0.655533ZM17.686 12.5589C18.5316 11.0318 19.3772 9.50471 20.2102 7.97094C20.2672 7.85708 20.3291 7.7449 20.3902 7.63439C20.5217 7.39578 20.6531 7.15801 20.7385 6.90099C20.278 6.82732 19.8109 6.83318 19.3446 6.8382C19.1152 6.84155 18.8849 6.84406 18.6564 6.83736C18.2193 7.66201 17.7899 8.49085 17.3604 9.31885C16.7175 10.5691 16.0634 11.8135 15.398 13.052C15.2757 13.283 15.1543 13.5149 15.0128 13.7351C14.8529 13.4789 14.7156 13.2102 14.5792 12.9423C14.5187 12.8235 14.4573 12.7051 14.395 12.5873C13.8073 11.442 13.2287 10.2925 12.6494 9.14304C12.2944 8.43811 11.9394 7.73318 11.582 7.02992L11.5719 7.01066C11.5393 6.94704 11.5033 6.87671 11.4145 6.88927L10.9105 6.87169C10.4626 6.85494 10.0147 6.8382 9.56595 6.84657C9.45125 6.84992 9.33991 6.8742 9.22939 6.89848L9.18335 6.90769C9.34493 7.2568 9.5333 7.59336 9.72084 7.92908C9.82716 8.12164 9.93432 8.3142 10.0365 8.5076C10.9457 10.1586 11.8599 11.8062 12.7741 13.4547L13.8734 15.4355C13.9638 15.5745 13.9621 15.7386 13.9605 15.8985V15.9956C13.9578 16.8599 13.9569 17.7242 13.958 18.5884C13.958 19.4884 13.9588 20.3884 13.9554 21.2884C14.4728 21.2943 14.9911 21.2935 15.5085 21.2918H15.9656V18.9669C15.9656 17.9337 15.9656 16.9006 15.9639 15.8683C15.9589 15.7589 15.9826 15.6501 16.0326 15.5527C16.5809 14.5531 17.1335 13.556 17.686 12.5589ZM88.4018 12.9415C88.0401 11.9092 87.3218 10.9539 86.2928 10.4583C85.3351 9.9769 84.158 9.98108 83.1759 10.3972C82.6426 10.6015 82.188 10.9414 81.7384 11.2779L81.5375 11.4286C81.5308 11.1364 81.5275 10.8451 81.5241 10.5537C81.5209 9.96246 81.507 9.37129 81.4822 8.78052C81.4795 7.85371 81.446 6.92725 81.3818 6.00266C81.3583 5.80592 81.319 5.5062 81.0544 5.49448C80.6635 5.49029 80.2825 5.58322 79.9041 5.67532L79.6504 5.73559C79.7978 6.48908 79.8045 7.25429 79.8112 8.01866C79.8154 8.41718 79.8195 8.81485 79.8421 9.21169C79.8455 10.0054 79.8505 10.799 79.8572 11.5927V11.6002C79.8723 13.7854 79.8874 15.9713 79.8581 18.1573L79.853 18.3666C79.8321 19.1477 79.8112 19.9338 79.6144 20.6957C80.0397 20.7627 80.4717 20.7535 80.9029 20.7442C81.0126 20.7417 81.1222 20.7392 81.2319 20.7384C81.2855 20.5709 81.3332 20.4035 81.3818 20.2344C81.4362 20.0435 81.4906 19.8526 81.5534 19.6642C81.648 19.7371 81.7409 19.8133 81.833 19.8895C82.0225 20.0542 82.2239 20.2044 82.4358 20.339C82.9492 20.6469 83.5237 20.8389 84.119 20.9018C84.7143 20.9647 85.3162 20.8969 85.8826 20.7032C86.5842 20.4604 87.1585 19.9606 87.5964 19.3905C88.3348 18.4068 88.673 17.1936 88.7651 15.9956C88.8221 14.97 88.7409 13.921 88.4018 12.9415ZM86.8915 16.3087C86.8052 17.058 86.6637 17.8266 86.2619 18.4855C85.9727 18.9638 85.5068 19.3091 84.965 19.4466C83.8356 19.7245 82.589 19.357 81.7552 18.5876C81.7352 18.5687 81.7148 18.5503 81.6941 18.5323C81.5978 18.4469 81.4956 18.3565 81.5199 18.2175V16.6344C81.5203 15.5198 81.52 14.4052 81.5191 13.2906C81.5166 13.1524 81.5141 13.0143 81.5325 12.8762C82.0951 12.2792 82.7816 11.7099 83.6422 11.5935C84.1144 11.5559 84.5992 11.5442 85.0647 11.6438C85.6373 11.7618 86.1195 12.1545 86.4126 12.6325C86.7726 13.2177 86.904 13.9051 86.9358 14.5749C86.9886 15.0311 86.9534 15.4874 86.9182 15.9437C86.9082 16.0651 86.899 16.1865 86.8915 16.3087ZM93.2182 5.9608C93.5188 6.14666 93.7499 6.42043 93.8763 6.74192C94.0982 7.43178 93.5155 8.2062 92.7854 8.2849C92.2211 8.34518 91.6016 8.02787 91.4258 7.48955C91.1939 6.88257 91.5514 6.15001 92.1701 5.90973C92.515 5.80601 92.8851 5.82404 93.2182 5.9608ZM47.5803 18.7425C47.4254 18.8095 47.2722 18.8806 47.119 18.9518C46.692 19.1519 46.2642 19.3511 45.7962 19.4499C45.2746 19.5797 44.7296 19.573 44.1954 19.5445C43.1807 19.4466 42.1845 19.0087 41.5105 18.2628C40.7403 17.4373 40.3485 16.3439 40.2053 15.2572C40.1593 14.5188 40.1902 13.777 40.222 13.0377L40.2271 12.9096C40.2363 12.3211 40.2714 11.7317 40.3828 11.1515C40.5067 10.5571 40.7562 9.99448 41.0542 9.46453C41.4862 8.71104 42.1736 8.08313 43.0141 7.77504C44.0196 7.38573 45.1658 7.45857 46.1729 7.80099C46.5313 7.9182 46.8553 8.1049 47.1776 8.2916L47.3274 8.37783L47.4773 8.20034C47.7201 7.91485 47.9646 7.62853 48.1571 7.30787C47.839 7.03662 47.4522 6.85913 47.0687 6.69001C46.1327 6.27308 45.0779 6.20359 44.0607 6.22118C43.061 6.23373 42.1049 6.63057 41.2853 7.15885C40.1802 7.8889 39.4192 9.0049 38.9127 10.1812C38.4915 11.1189 38.3199 12.1428 38.3015 13.1583C38.2513 13.5752 38.2789 13.993 38.3057 14.4099C38.3132 14.5296 38.3207 14.6494 38.3266 14.7682C38.3936 15.4891 38.5167 16.2108 38.7678 16.8948C39.142 17.9103 39.7624 18.8513 40.6097 19.5604C41.3447 20.1682 42.2288 20.6321 43.1816 20.8221C44.5061 20.9443 45.8941 20.9343 47.1458 20.4462C47.6096 20.262 48.0617 20.051 48.4995 19.8141C48.2199 19.4374 47.9227 19.069 47.5803 18.7425ZM121.728 19.0682C121.753 19.4156 122.078 19.6609 122.405 19.7496C122.949 19.8694 123.519 19.8275 124.059 19.6994C124.204 20.0033 124.27 20.3349 124.253 20.6681C123.764 20.9125 123.204 20.9611 122.665 21.0063H122.66C121.898 21.0364 121.047 20.9201 120.499 20.3566C120.119 20.0175 120.083 19.5085 120.051 19.0322C120.045 18.9447 120.039 18.8573 120.031 18.7701C119.997 17.8984 119.985 17.0261 119.992 16.1538C119.992 15.834 119.992 15.5142 119.991 15.1944V13.7318C119.991 13.0001 119.992 12.2692 119.988 11.5375C119.664 11.5339 119.341 11.5328 119.017 11.5341H118.561C118.544 11.1358 118.543 10.737 118.558 10.3386H119.08C119.373 10.3386 119.667 10.3402 119.96 10.3319C119.981 10.0723 119.997 9.8128 120.013 9.55327C120.052 8.93373 120.091 8.3142 120.195 7.70053C120.747 7.53329 121.309 7.40185 121.878 7.30704C121.789 8.31334 121.723 9.32163 121.682 10.331C122.009 10.3394 122.336 10.3436 122.665 10.3478C123.23 10.3562 123.796 10.3645 124.362 10.3871C124.207 10.7722 124.043 11.1557 123.869 11.5341H122.922C122.485 11.5341 122.049 11.5333 121.612 11.5366C121.611 12.0515 121.614 12.5664 121.616 13.0813V13.088C121.618 13.5024 121.621 13.9168 121.621 14.3312C121.616 14.6912 121.627 15.0521 121.637 15.4129V15.4137C121.649 15.793 121.66 16.1714 121.654 16.5507C121.66 16.8144 121.66 17.0781 121.66 17.3418C121.66 17.9178 121.66 18.4947 121.728 19.0682ZM140.766 11.2176V11.2185C140.588 11.3918 140.412 11.5651 140.208 11.7108C140.18 11.1498 140.125 10.5722 139.85 10.0656C139.454 10.1519 139.064 10.2599 138.674 10.3679L138.303 10.47C138.32 10.6609 138.357 10.8493 138.395 11.0368C138.442 11.2687 138.489 11.5006 138.495 11.7375C138.544 12.6417 138.546 13.5476 138.548 14.4535C138.548 14.7615 138.549 15.0705 138.551 15.3786V17.531C138.551 18.6002 138.55 19.6701 138.555 20.7392C139.128 20.7518 139.702 20.7518 140.275 20.7392C140.277 19.9389 140.276 19.1376 140.276 18.3364L140.277 15.9336C140.27 15.3375 140.284 14.7415 140.311 14.1454C140.315 14.07 140.316 13.9938 140.317 13.916V13.9151C140.323 13.5677 140.329 13.206 140.561 12.9247C140.856 12.5641 141.215 12.262 141.621 12.0339C142.002 11.8296 142.444 11.8213 142.87 11.8129C142.91 11.8129 142.949 11.8121 142.99 11.8104C143.013 11.806 143.037 11.8038 143.061 11.8037C143.128 11.8003 143.201 11.797 143.223 11.7317C143.323 11.5056 143.406 11.2746 143.491 11.0435C143.591 10.7672 143.692 10.4909 143.818 10.2255V10.0975C142.759 9.91494 141.678 10.3461 140.93 11.0594C140.875 11.1115 140.821 11.1643 140.767 11.2176H140.766ZM134.315 11.7535C134.782 12.3897 135.099 13.1228 135.243 13.8984C135.356 14.6326 135.399 15.3761 135.372 16.1187C135.342 17.3242 134.956 18.5382 134.191 19.5018C133.573 20.2746 132.614 20.7375 131.629 20.9083C130.435 21.1093 129.138 20.9067 128.138 20.2235C127.261 19.6224 126.702 18.683 126.399 17.7052C126.246 17.2464 126.21 16.7642 126.175 16.2869L126.167 16.1806V16.1756C126.151 15.3149 126.134 14.4442 126.315 13.597C126.563 12.6342 127.057 11.7082 127.823 11.0318C128.395 10.5255 129.109 10.2062 129.868 10.1167C130.535 10.0275 131.213 10.0455 131.875 10.1703C132.85 10.3914 133.715 10.9523 134.315 11.7526V11.7535ZM133.43 16.7072L133.435 16.6344L133.442 16.5507C133.475 15.8943 133.482 15.2362 133.444 14.579C133.385 13.8925 133.307 13.1784 132.957 12.5647C132.648 12.0948 132.209 11.7247 131.693 11.4989C131.15 11.3215 130.559 11.3357 129.996 11.4085C129.188 11.4931 128.537 12.1084 128.276 12.8259C127.998 13.4689 127.989 14.1671 127.98 14.8545V14.8637C127.978 14.9742 127.977 15.0847 127.975 15.1944L127.98 15.3786L127.983 15.5075C127.999 16.1547 128.015 16.8035 128.137 17.4415C128.235 17.9379 128.404 18.4428 128.755 18.8312C129.09 19.2189 129.578 19.4625 130.086 19.5696C130.805 19.7245 131.594 19.6467 132.237 19.2875C132.672 19.0481 132.966 18.6311 133.152 18.1924C133.351 17.7211 133.391 17.2104 133.43 16.7072ZM76.2539 17.4138C76.2254 16.7131 76.2246 16.0107 76.2229 15.3091C76.2212 14.3404 76.2196 13.3709 76.1459 12.404C76.1157 12.0883 76.0764 11.766 75.9466 11.4713C75.821 11.185 75.5833 10.9673 75.3539 10.7555L75.3162 10.7203C74.7829 10.2322 74.0194 9.99699 73.2901 10.0774C72.4948 10.1519 71.7522 10.4951 71.1017 10.9271C70.9709 11.0146 70.8433 11.1068 70.7191 11.2034C70.488 11.3792 70.2561 11.555 69.9848 11.6706L69.974 11.6538L69.9329 11.5852L69.8953 11.5215C69.7387 11.2595 69.5805 10.9941 69.3511 10.7856C69.0915 10.5445 68.7659 10.3871 68.4469 10.2331C68.2603 10.1394 68.0573 10.0825 67.8491 10.0656C66.9223 10.0263 66.0156 10.3536 65.2697 10.8669C65.1394 10.9537 65.0131 11.0464 64.8913 11.1448C64.7096 11.2871 64.5271 11.4295 64.3178 11.5333C64.2759 11.0283 64.1473 10.5344 63.9377 10.0732C63.4236 10.1653 62.9163 10.2883 62.419 10.4415C62.4424 10.5772 62.4776 10.7095 62.5128 10.8426C62.5462 10.9648 62.5781 11.0879 62.6015 11.2126C62.6693 11.6999 62.6802 12.1913 62.6902 12.6819L62.6969 12.9716C62.7388 14.4426 62.7463 15.9144 62.753 17.3854V17.387C62.7589 18.5039 62.7639 19.6207 62.7848 20.7359C63.2872 20.7535 63.7912 20.7526 64.2943 20.7375C64.2918 19.4767 64.2927 18.215 64.2927 16.9542V16.9383C64.2927 15.6775 64.2935 14.4166 64.291 13.1549V13.1282C64.291 13.0285 64.291 12.9172 64.3881 12.8577C65.0436 12.2935 65.7921 11.7794 66.6595 11.5793C67.2162 11.447 67.9094 11.5467 68.2602 12.023C68.4419 12.3671 68.4519 12.7556 68.4611 13.1374C68.4645 13.2479 68.467 13.3567 68.4737 13.4647C68.5038 13.8147 68.5038 14.1663 68.503 14.5179L68.5038 14.8863C68.5055 16.837 68.5055 18.7877 68.5047 20.7384C69.0781 20.7526 69.6516 20.7501 70.226 20.7409C70.231 18.8321 70.2301 16.9232 70.2285 15.0135V15.0077V13.2161C70.2301 13.196 70.2301 13.1759 70.2301 13.1549C70.2301 13.0896 70.231 13.021 70.2871 12.9791C70.4344 12.8519 70.5876 12.7313 70.7408 12.6108C70.835 12.5377 70.9285 12.4637 71.0213 12.3889C71.5354 11.9887 72.1055 11.5785 72.787 11.5165H72.7878C73.1721 11.4956 73.5949 11.4722 73.9314 11.6856C74.2236 11.8882 74.417 12.198 74.4639 12.5413C74.5359 13.3827 74.5342 14.2274 74.5334 15.0713V20.7384C75.1099 20.7512 75.6866 20.7523 76.2631 20.7417C76.2631 20.2109 76.2606 19.6802 76.2581 19.1502V19.1443C76.2564 18.5675 76.2539 17.9907 76.2539 17.4138ZM93.4728 13.2002C93.4736 13.6188 93.4744 14.0357 93.4786 14.4535C93.4803 15.9202 93.4803 17.3879 93.4795 18.8555V20.7392C92.9076 20.7518 92.335 20.7518 91.7632 20.7392C91.7544 18.8823 91.7519 17.0254 91.7556 15.1684C91.7572 13.8808 91.7572 12.5932 91.7556 11.3055C91.754 10.9874 91.7531 10.6693 91.7682 10.3511C92.3205 10.2727 92.871 10.1817 93.4192 10.0782C93.4694 11.118 93.4711 12.1595 93.4728 13.2002ZM59.4586 14.5188C59.4226 13.6514 59.107 12.8125 58.6599 12.0657C58.1341 11.2001 57.2701 10.5445 56.2864 10.2189C55.9407 10.11 55.5765 10.1042 55.2148 10.0983C55.1294 10.0971 55.044 10.0951 54.9586 10.0924C54.8891 10.0924 54.8205 10.0908 54.751 10.0899C54.4448 10.0784 54.1383 10.088 53.8334 10.1184C53.3537 10.2071 52.9058 10.4173 52.4922 10.6609C51.5905 11.2051 50.9475 12.085 50.6143 13.0486C50.2627 14.0256 50.2828 15.0747 50.3079 16.0935C50.3473 17.1484 50.5624 18.2368 51.2004 19.1175C51.7747 19.938 52.6429 20.5726 53.6425 20.8255C54.7552 21.1126 55.9867 21.018 57.0148 20.5065C58.0487 20.0025 58.8215 19.0623 59.1748 18.0082C59.5549 16.8839 59.5139 15.6842 59.4586 14.5188ZM57.5272 17.3385C57.4418 17.9354 57.1965 18.524 56.7712 18.9727C56.2437 19.501 55.44 19.6927 54.7007 19.6467C53.9247 19.5948 53.1159 19.2498 52.7224 18.5767C52.3607 17.9346 52.2184 17.2037 52.128 16.4862C52.0736 15.8935 52.02 15.2965 52.0778 14.7013C52.1297 13.9017 52.195 13.0536 52.6479 12.3571C52.9669 11.869 53.5111 11.5509 54.0879 11.4202C54.7853 11.2612 55.5581 11.3148 56.1843 11.6681C56.6314 11.9117 56.9813 12.2909 57.1814 12.7455C57.5121 13.4773 57.5682 14.286 57.605 15.0722L57.6059 15.1475C57.6193 15.8784 57.6327 16.6126 57.5272 17.3385ZM105.132 16.0358C105.133 16.5155 105.135 16.9952 105.142 17.4758C105.141 18.0744 105.148 18.673 105.154 19.2724C105.16 19.7605 105.165 20.2486 105.167 20.7375C104.593 20.7523 104.019 20.7526 103.445 20.7384C103.445 19.8041 103.434 18.8689 103.424 17.9337C103.413 17.082 103.407 16.2303 103.404 15.3786C103.396 15.073 103.396 14.7674 103.395 14.4618C103.395 13.772 103.395 13.0804 103.308 12.3956C103.153 11.9209 102.676 11.5249 102.146 11.5115C101.755 11.4964 101.35 11.4822 100.977 11.6145C100.156 11.9092 99.4169 12.3797 98.7488 12.918C98.7371 14.461 98.7388 16.004 98.7405 17.5478C98.7413 18.6119 98.743 19.676 98.7396 20.7409C98.2365 20.7501 97.7342 20.7526 97.2318 20.7375C97.231 19.9355 97.2193 19.1326 97.2076 18.3306C97.1975 17.6549 97.1875 16.9793 97.1841 16.3037C97.1808 15.973 97.1791 15.6431 97.1774 15.3133C97.1707 14.1219 97.164 12.9306 97.0995 11.7401C97.087 11.4336 97.0091 11.1389 96.9304 10.8434C96.8995 10.7262 96.8685 10.609 96.8409 10.4901L96.9162 10.4675L97.0225 10.434C97.4721 10.2959 97.9284 10.1552 98.4022 10.146C98.5956 10.6232 98.7221 11.123 98.7782 11.6321C98.9875 11.5073 99.1817 11.3625 99.3759 11.2168C99.6028 11.0469 99.8297 10.8777 100.081 10.7404C100.977 10.2297 102.096 9.87811 103.117 10.2456C103.717 10.4491 104.3 10.7764 104.663 11.2922C104.959 11.6664 105.028 12.1495 105.059 12.6049C105.123 13.7477 105.128 14.8922 105.132 16.0358ZM116.082 18.0024C116.088 18.4252 116.094 18.8513 116.202 19.2632C116.265 19.5353 116.488 19.7095 116.704 19.8786C116.758 19.9204 116.811 19.9615 116.861 20.0042C116.792 20.0946 116.726 20.1883 116.66 20.2829C116.49 20.5266 116.319 20.771 116.087 20.9628C115.9 21.1135 115.67 20.951 115.511 20.8405L115.509 20.8389C115.09 20.5408 114.807 20.108 114.576 19.6668C114.384 19.7748 114.202 19.9007 114.033 20.0427C113.884 20.1662 113.726 20.279 113.561 20.3801C112.931 20.7635 112.189 20.9912 111.442 20.9812C110.771 20.9954 110.084 20.8891 109.48 20.6002C108.499 20.1021 107.954 19.0154 107.982 17.9706C107.974 16.9659 108.504 15.9872 109.342 15.3953C110.347 14.6745 111.623 14.4367 112.847 14.3505C113.228 14.3178 113.612 14.3069 113.995 14.2952H113.996C114.174 14.2894 114.353 14.2843 114.531 14.2768C114.549 13.7494 114.516 13.2215 114.434 12.7003C114.368 12.2566 114.148 11.8029 113.725 11.5802C113.217 11.3231 112.618 11.3173 112.063 11.3935C111.017 11.5165 110.034 11.946 109.183 12.5329L109.031 12.3269H109.031C108.847 12.0897 108.678 11.8424 108.522 11.586C108.428 11.4202 108.581 11.2888 108.724 11.221C109.873 10.6123 111.131 10.0849 112.467 10.0941H112.755C113.13 10.0933 113.507 10.0916 113.878 10.1468C115.044 10.3595 116.041 11.3675 116.071 12.5304C116.108 13.5585 116.097 14.5874 116.085 15.6163C116.077 16.3188 116.069 17.0203 116.077 17.7228C116.079 17.8149 116.081 17.9086 116.082 18.0024ZM113.637 19.0941C113.999 18.8044 114.352 18.426 114.377 17.9488C114.432 17.3025 114.436 16.6528 114.439 16.004C114.44 15.8047 114.441 15.6055 114.444 15.407C114.252 15.4092 114.06 15.4006 113.869 15.3811C113.56 15.347 113.248 15.3476 112.939 15.3828C112.484 15.4213 112.028 15.4606 111.588 15.5787C110.97 15.7478 110.401 16.1212 110.073 16.6595C109.905 16.9266 109.889 17.243 109.873 17.5486L109.867 17.6575L109.86 17.8442V17.8458C109.847 18.1615 109.833 18.4838 109.962 18.7785C110.114 19.1318 110.363 19.4784 110.744 19.6299C111.182 19.8066 111.672 19.8242 112.14 19.784C112.701 19.7187 113.203 19.4273 113.637 19.0941Z" fill="black"/>
</svg>
