<svg width="105" height="22" viewBox="0 0 105 22" fill="none" xmlns="http://www.w3.org/2000/svg">
<path d="M44.3696 21.368L41.9402 17.7538L39.5108 21.368H33.9675L39.1585 13.6757L34.4452 6.73863H40.0406L41.9612 9.56505L43.881 6.73863H49.5487L44.743 13.6439L49.9541 21.368H44.3696ZM67.2171 13.8591C67.2171 8.91789 69.3967 6.10152 75.0022 6.10152C80.6077 6.10152 82.7672 8.91789 82.7672 13.8591C82.7672 18.8003 80.6187 21.6376 75.0022 21.6376C69.3967 21.6485 67.2171 18.8112 67.2171 13.8591ZM77.7848 14.0207C77.7848 12.1437 77.3383 10.7949 75.0022 10.7949C72.6771 10.7949 72.2205 12.1428 72.2205 14.0207C72.2205 15.8659 72.6662 17.2464 75.0022 17.2464C77.3383 17.2464 77.7848 15.8651 77.7848 14.0207ZM94.0303 6.27398H96.5842L97.383 3.24328L101.213 2.37928V6.26394H104.348V11.2261H101.213V15.531C101.213 16.5449 101.369 17.0631 102.916 17.0631H104.348V21.3571C103.601 21.4107 102.771 21.4325 101.847 21.4325C97.663 21.4325 96.2831 20.0511 96.2831 16.3079V11.2261H94.0303V6.27398ZM12.7808 16.3833V0.579285H17.743V15.737C17.743 16.8052 17.9718 17.0639 19.0195 17.0639H19.4459L20.0261 21.25C19.6527 21.3044 18.1172 21.4124 17.1922 21.4124C14.4627 21.4124 12.7808 20.4195 12.7808 16.385V16.3833ZM0.532152 6.44728H3.24156V6.15594C3.24156 2.41194 4.59038 0.534912 9.2507 0.534912C10.4759 0.534912 10.7038 0.55668 11.3059 0.610261V4.79631H9.91502C8.49304 4.79631 8.19199 5.16301 8.19199 6.12328V6.44728H11.2958V10.8167H8.19199V21.3571H3.23063V10.8167H0.531311V6.44645L0.532152 6.44728Z" fill="black"/>
</svg>
