<svg width="132" height="19" viewBox="0 0 132 19" fill="none" xmlns="http://www.w3.org/2000/svg">
<path d="M102.195 4.76424H104.526V0.58238H106.594V4.78768H110.224V6.57094H106.594V15.1791C106.594 16.2801 107.254 16.9624 108.354 16.9624H110.224V18.79H107.804C105.934 18.79 104.526 17.4028 104.526 15.4872V6.57094H102.195V4.76508V4.76424ZM98.4995 0.581542H100.567V3.13503H98.4995V0.581542ZM98.4995 4.78685H100.567V18.7892H98.4995V4.78685ZM95.4635 18.7666V16.6317L88.5126 9.67447L95.4635 2.71726V0.581542H93.3081L84.2235 9.67364L93.3081 18.7674H95.4635V18.7666ZM81.078 0.581542H84.1132V18.7666H81.078V0.581542ZM62.2262 0.581542H59.1902V11.5666C59.1468 13.8563 57.2328 15.684 54.9454 15.6396C52.7231 15.5961 50.9419 13.7902 50.8759 11.5666V0.58238H47.8399V11.5666C47.8399 15.5517 51.0514 18.7666 55.0331 18.7666C59.0148 18.7666 62.2262 15.5517 62.2262 11.5666V0.58238V0.581542ZM45.3762 0.581542H34.7736V3.61977H38.5573V18.7666H41.5925V3.61977H45.3762V0.580704V0.581542ZM32.6181 18.7666V0.58238H29.5604V12.6909L20.3655 0.58238H18.2101V18.7666H21.2453V6.61364L30.4619 18.7674H32.6173L32.6181 18.7666ZM15.0864 0.580704H12.0504V11.5666C12.0287 13.8563 10.1807 15.7275 7.89321 15.7275C6.79293 15.7501 5.73777 15.288 4.96749 14.4951C4.57674 14.1146 4.26624 13.6593 4.05442 13.1562C3.84259 12.6532 3.73376 12.1126 3.73437 11.5666V0.580704H0.700045V11.5666C0.678324 13.4821 1.42605 15.3315 2.81205 16.6526C3.47624 17.3318 4.27076 17.8693 5.14774 18.2326C6.02473 18.5959 6.96603 18.7775 7.91493 18.7666C8.86439 18.7806 9.80673 18.6004 10.6843 18.2369C11.5618 17.8734 12.3562 17.3343 13.0187 16.6526C13.6948 15.9914 14.2304 15.2 14.5932 14.3259C14.956 13.4518 15.1385 12.5132 15.1298 11.5666V0.580704H15.0864ZM71.4646 0.58238C69.5514 0.559775 67.7034 1.30824 66.3834 2.6955C65.02 4.03838 64.2497 5.86601 64.294 7.78154V11.5682C64.2497 15.5534 67.4394 18.8118 71.4203 18.8553C73.2907 18.8783 75.0962 18.1687 76.4522 16.8775C77.8083 15.5863 78.6077 13.8156 78.6803 11.9425H75.6226C75.402 14.2322 73.3786 15.9276 71.0911 15.7074C68.9574 15.509 67.3074 13.7257 67.3074 11.5682V7.78154C67.3074 5.49178 69.1771 3.62061 71.4646 3.62061C72.5008 3.62173 73.4993 4.01064 74.2643 4.71113C75.0293 5.41162 75.5057 6.37317 75.6 7.40731H78.636C78.4606 3.57624 75.2926 0.581542 71.4646 0.581542V0.58238ZM131.583 18.6787H113.414V0.492798L131.583 18.6787Z" fill="black"/>
</svg>
