<svg width="122" height="32" viewBox="0 0 122 32" fill="none" xmlns="http://www.w3.org/2000/svg">
<path d="M82.3 6.613C80.142 6.613 78.478 7.382 76.934 8.987V6.987H72.696V26.667H77.256V15.253C77.256 12.64 78.812 10.987 81.173 10.987C81.602 10.987 81.978 11.04 82.246 11.093L85.411 6.933C84.177 6.72 83.104 6.613 82.299 6.613H82.3ZM121.625 6.987H116.367L111.512 13.406L106.657 6.986H101.399L108.817 16.903L101.399 26.667H106.764L111.485 20.441L116.206 26.667H121.625L114.157 16.919L121.625 6.987ZM25.86 2.56C24.304 4.64 23.928 5.333 22.426 5.333H0V32H8.799C10.784 32 12.715 31.04 13.949 29.44C15.559 27.307 15.773 26.667 17.329 26.667H39.809V0H30.956C28.971 0 27.04 0.96 25.859 2.56H25.86ZM32.834 19.787H23.445C21.406 19.787 19.529 20.64 18.295 22.293C16.685 24.427 16.363 25.067 14.861 25.067H6.921V12.267H16.31C18.348 12.267 20.226 11.307 21.46 9.707C23.07 7.627 23.499 6.987 24.947 6.987H32.834V19.787ZM66.526 13.227C68.512 12.107 69.906 10.133 69.906 7.52C69.906 3.68 66.956 0 62.664 0H49.788V26.667H62.664C67.331 26.667 70.55 23.36 70.55 19.2C70.55 16.747 69.424 14.613 66.526 13.227ZM54.348 4.16H62.288C64.273 4.16 65.453 6.027 65.453 7.68C65.453 9.707 63.683 11.093 62.02 11.093H54.348V4.16ZM62.02 22.507H54.348V15.253H62.288C64.327 15.253 65.99 17.013 65.99 18.827C65.99 20.853 63.898 22.507 62.02 22.507Z" fill="black"/>
<path d="M96.839 21.013C96.088 22.187 94.639 22.88 93.029 22.88C90.509 22.88 88.416 21.173 88.416 18.56H102.043C102.258 17.76 102.311 17.387 102.311 16.693C102.311 10.72 98.609 6.613 93.03 6.613C87.557 6.613 83.695 10.507 83.695 16.853C83.695 23.04 87.396 27.04 93.137 27.04C97.161 27.04 100.702 25.067 101.721 21.013H96.839ZM93.029 10.773C95.551 10.773 97.483 12.373 97.429 14.773H88.469C88.469 12.427 90.509 10.773 93.029 10.773Z" fill="black"/>
</svg>
