<svg width="73" height="36" viewBox="0 0 73 36" fill="none" xmlns="http://www.w3.org/2000/svg">
<path fill-rule="evenodd" clip-rule="evenodd" d="M51.3257 11.6506C22.218 20.6096 0.722473 11.6506 0.722473 11.6506L16.7363 0C21.5929 3.705 26.9392 6.72291 32.6235 8.96819C32.9667 9.09712 33.2989 9.22102 33.6329 9.33488C33.8678 9.4186 34.0952 9.49563 34.3176 9.5693C34.7002 9.6974 35.0744 9.8213 35.4428 9.92679C36.0107 10.1025 36.5829 10.2644 37.1587 10.4124L37.2862 10.4459C37.4557 10.4886 37.6227 10.5313 37.7914 10.5681C38.0339 10.6284 39.6499 10.9716 39.7909 10.9993C40.0107 11.0411 40.2314 11.078 40.4513 11.1148L40.5301 11.1282C41.4739 11.2895 42.424 11.4119 43.378 11.4949C43.6062 11.5175 43.8294 11.5367 44.0534 11.5543L44.1642 11.5619C44.4327 11.5803 45.1291 11.6288 45.4908 11.6414C45.6049 11.6498 45.7198 11.6556 45.8281 11.6556C47.2629 11.7084 48.5551 11.6874 49.7147 11.6682C50.2626 11.6598 50.7803 11.6506 51.2687 11.6506H51.3266H51.3257ZM60.095 35.4834V33.7814C60.0939 33.7525 60.0815 33.7252 60.0605 33.7054C60.0395 33.6855 60.0115 33.6746 59.9825 33.6751H58.4C58.1729 33.6975 57.9437 33.665 57.7319 33.5802C57.5201 33.4953 57.3319 33.3607 57.1834 33.1878C56.8897 32.7066 56.7589 32.144 56.81 31.5829V22.7528H59.9825C59.9974 22.7531 60.0122 22.7503 60.026 22.7447C60.0398 22.7391 60.0523 22.7307 60.0628 22.7202C60.0733 22.7096 60.0816 22.6971 60.0871 22.6833C60.0926 22.6695 60.0953 22.6547 60.095 22.6398V20.9009C60.0939 20.8721 60.0815 20.8448 60.0605 20.8249C60.0395 20.805 60.0115 20.7941 59.9825 20.7946H56.81V17.249C56.8101 17.219 56.7984 17.1901 56.7772 17.1687C56.7668 17.1581 56.7544 17.1497 56.7407 17.144C56.7271 17.1382 56.7124 17.1352 56.6975 17.1352L54.7559 17.7296C54.741 17.7295 54.7263 17.7323 54.7125 17.738C54.6988 17.7436 54.6863 17.752 54.6758 17.7625C54.6654 17.773 54.6571 17.7855 54.6515 17.7993C54.646 17.813 54.6432 17.8278 54.6435 17.8426V20.7946H52.5256C52.5112 20.7942 52.4969 20.7966 52.4834 20.8017C52.47 20.8068 52.4577 20.8145 52.4472 20.8244C52.4367 20.8343 52.4284 20.8461 52.4225 20.8593C52.4167 20.8724 52.4135 20.8866 52.4132 20.9009V22.6398C52.4129 22.6621 52.4193 22.684 52.4316 22.7026C52.4439 22.7212 52.4614 22.7358 52.482 22.7445C52.4963 22.7503 52.5105 22.7528 52.5256 22.7528H54.6435V31.9354C54.5586 32.936 54.8633 33.9308 55.4943 34.7132C55.863 35.0368 56.2939 35.282 56.7607 35.434C57.2276 35.586 57.7205 35.6416 58.2096 35.5973H59.9825C59.9975 35.5974 60.0123 35.5945 60.0261 35.5888C60.0399 35.5831 60.0524 35.5747 60.0629 35.5641C60.0734 35.5535 60.0816 35.5409 60.0871 35.527C60.0926 35.5132 60.0953 35.4983 60.095 35.4834ZM47.8964 21.1714C47.3951 21.2896 46.9234 21.509 46.5103 21.816C46.0962 22.1243 45.7493 22.5134 45.4908 22.9596C45.4654 22.9972 45.444 23.0373 45.427 23.0793V21.3413C45.4273 21.3094 45.4149 21.2787 45.3926 21.2559C45.3815 21.2447 45.3683 21.2358 45.3538 21.2298C45.3392 21.2238 45.3236 21.2207 45.3079 21.2207H43.4367C43.4209 21.2206 43.4053 21.2236 43.3907 21.2297C43.3762 21.2357 43.363 21.2446 43.352 21.2559C43.3407 21.2671 43.3318 21.2804 43.3258 21.2951C43.3197 21.3097 43.3166 21.3254 43.3167 21.3413V35.4901C43.3166 35.5059 43.3196 35.5216 43.3256 35.5362C43.3316 35.5508 43.3404 35.5641 43.3516 35.5753C43.3627 35.5865 43.376 35.5954 43.3906 35.6015C43.4052 35.6076 43.4209 35.6107 43.4367 35.6107H45.3708C45.3962 35.611 45.4211 35.6039 45.4424 35.5902C45.4637 35.5765 45.4806 35.5569 45.4908 35.5337C45.4907 35.5289 45.4913 35.5241 45.4925 35.5194L45.4941 35.5119C45.4961 35.5051 45.4972 35.4981 45.4975 35.491L45.4832 27.5609C45.4832 27.4998 45.4849 27.4404 45.4874 27.3826C45.4891 27.3257 45.4908 27.2704 45.4908 27.2152C45.5139 26.4003 45.6978 25.5981 46.032 24.8542C46.2707 24.3174 46.6527 23.8563 47.1362 23.5214C47.6181 23.1874 48.1833 22.993 48.7691 22.9596C49.1894 22.9115 49.6122 22.888 50.0352 22.8893L50.5555 22.896C50.5824 22.8941 50.6076 22.8821 50.626 22.8623C50.6444 22.8426 50.6545 22.8166 50.6545 22.7897V20.9009C50.6545 20.5351 48.1498 21.0935 47.8964 21.1714ZM20.7564 33.8835C21.2179 34.0753 21.7188 34.1531 22.2164 34.1121C22.9634 34.1814 23.7082 33.9587 24.2939 33.4909C24.8817 33.0215 25.2662 32.3447 25.3679 31.6005C25.3722 31.5755 25.3852 31.5527 25.4045 31.5362C25.4238 31.5197 25.4482 31.5105 25.4737 31.51H27.4069C27.4216 31.51 27.4362 31.513 27.4498 31.5187C27.4633 31.5245 27.4756 31.5329 27.4858 31.5435C27.4961 31.5542 27.5041 31.5668 27.5095 31.5806C27.5148 31.5944 27.5173 31.6091 27.5168 31.6239C27.5178 32.0598 27.4622 32.494 27.3515 32.9157C27.2131 33.3327 27.015 33.7275 26.7633 34.0878C25.9226 35.3528 24.3887 35.9858 22.1618 35.9858C21.3967 36.0412 20.6285 35.935 19.9072 35.6743C19.1847 35.4132 18.5253 35.0036 17.9714 34.4721C17.0224 33.4616 16.5475 31.9663 16.5475 29.9872V27.2637C16.5475 25.1188 17.0216 23.5047 17.9714 22.4205C18.5074 21.8578 19.1612 21.4202 19.8862 21.1387C20.61 20.858 21.3872 20.7408 22.1618 20.7954C24.1521 20.7954 25.5945 21.2994 26.4898 22.3083C27.123 22.97 27.479 23.8481 27.4849 24.763C27.4854 24.7929 27.4739 24.8218 27.4531 24.8433C27.4425 24.854 27.43 24.8625 27.4162 24.8682C27.4023 24.874 27.3875 24.8769 27.3725 24.8768H25.4745C25.4478 24.8773 25.422 24.8678 25.4018 24.8504C25.3817 24.8329 25.3687 24.8086 25.3654 24.7822C25.3407 24.4779 25.2479 24.1829 25.094 23.9189C24.9401 23.655 24.7289 23.4288 24.476 23.2568C23.8304 22.8124 23.0549 22.5947 22.2717 22.6381C21.7665 22.5934 21.2579 22.6686 20.7874 22.8575C20.3159 23.0465 19.8956 23.3436 19.5607 23.7248C18.9951 24.4499 18.7115 25.6194 18.7115 27.2327V29.5434C18.6149 30.7603 18.9126 31.9759 19.5607 33.0112C19.8854 33.3938 20.2949 33.6927 20.7572 33.8835H20.7564ZM40.4043 24.197C40.4605 24.3703 40.4966 24.5512 40.51 24.7337C40.5243 24.9246 40.5377 25.1221 40.5377 25.3348V34.6002C40.5336 34.6744 40.5074 34.7457 40.4624 34.8049C40.4174 34.8642 40.3556 34.9086 40.2851 34.9326L40.2432 34.9468C38.9347 35.3939 37.5766 35.6807 36.1988 35.8007C35.96 35.8281 35.72 35.8449 35.4797 35.851C35.2854 35.8581 35.0909 35.8581 34.8965 35.851C33.2436 35.7807 31.604 35.4491 30.8304 34.8405C29.9434 34.1523 29.5004 33.038 29.5004 31.4975C29.5004 29.8649 29.9577 28.6702 30.8933 27.9209C31.8289 27.1725 33.2847 26.7907 35.2758 26.7907C35.6416 26.7907 36.1132 26.8116 36.6762 26.8468C37.2384 26.882 37.809 26.9389 38.3712 27.0092V25.3909C38.3712 25.2209 38.3645 25.066 38.3502 24.917C38.3111 24.4842 38.1473 24.0719 37.8786 23.7299L37.8719 23.7232C37.5383 23.3417 37.1191 23.0442 36.6484 22.8551C36.1777 22.6659 35.6689 22.5905 35.1634 22.6348C34.3807 22.5933 33.6063 22.8121 32.9616 23.2568C32.7163 23.4269 32.5136 23.6513 32.3695 23.9124C32.2254 24.1735 32.1438 24.4643 32.1309 24.7621C32.1289 24.7887 32.117 24.8135 32.0976 24.8317C32.0782 24.85 32.0527 24.8604 32.026 24.8609H30.1264C30.1114 24.8612 30.0965 24.8583 30.0826 24.8526C30.0687 24.8468 30.0562 24.8383 30.0458 24.8274C30.0355 24.8169 30.0274 24.8045 30.0219 24.7909C30.0164 24.7772 30.0137 24.7626 30.0139 24.7479C29.9987 23.8464 30.3309 22.9734 30.942 22.3091C31.8398 21.3011 33.2847 20.7971 35.2758 20.7971C36.3553 20.7573 37.4254 21.0114 38.3712 21.5322C38.784 21.7591 39.1532 22.058 39.462 22.4154C39.8958 22.937 40.2172 23.5432 40.4043 24.1962V24.197ZM38.3712 28.9716C38.3691 28.9395 38.3562 28.909 38.3346 28.8851C38.313 28.8613 38.2839 28.8454 38.252 28.8402C37.5699 28.7623 35.7474 28.6066 35.4377 28.6066C34.0382 28.6066 33.0598 28.826 32.5261 29.2714C32.2326 29.5522 32.0072 29.8961 31.8669 30.2769C31.7265 30.6577 31.6751 31.0654 31.7164 31.469C31.708 31.8592 31.7701 32.2468 31.8993 32.6143C31.99 32.8471 32.131 33.0571 32.3123 33.2293C32.4935 33.4016 32.7107 33.5317 32.9482 33.6106C34.6967 34.1402 36.5721 34.0754 38.2797 33.4264C38.3054 33.4164 38.3276 33.3992 38.3439 33.377C38.3601 33.3547 38.3695 33.3283 38.3712 33.3008V28.9716ZM72.7491 24.1954C72.8054 24.3703 72.8414 24.5503 72.8549 24.7328C72.8691 24.9237 72.8834 25.1213 72.8834 25.334V34.5993C72.8794 34.6737 72.8531 34.7452 72.8079 34.8045L72.8037 34.8103C72.7589 34.8668 72.6985 34.909 72.63 34.9317L72.6266 34.9326C71.3061 35.3877 69.9346 35.6793 68.5428 35.8007C68.3037 35.8292 68.0646 35.8434 67.8246 35.851C67.6303 35.8581 67.4357 35.8581 67.2414 35.851C65.5884 35.7798 63.9489 35.4474 63.1752 34.8396C62.2883 34.1514 61.8453 33.0371 61.8453 31.4967C61.8453 29.8641 62.3026 28.6694 63.2382 27.9201C64.1737 27.1716 65.6295 26.7899 67.6207 26.7899C67.9865 26.7899 68.4581 26.8108 69.0211 26.846C69.5833 26.8811 70.1539 26.938 70.716 27.0084V25.3909C70.716 25.2209 70.7093 25.066 70.6951 24.917C70.6562 24.4843 70.4927 24.072 70.2243 23.7299L70.2168 23.7232C69.8832 23.3417 69.464 23.0442 68.9933 22.8551C68.5226 22.6659 68.0137 22.5905 67.5082 22.6348C66.7256 22.5933 65.9512 22.8121 65.3065 23.2568C65.0611 23.4269 64.8585 23.6513 64.7144 23.9124C64.5703 24.1735 64.4886 24.4643 64.4758 24.7621C64.4737 24.7887 64.4618 24.8135 64.4425 24.8317C64.4231 24.85 64.3976 24.8604 64.3709 24.8609H62.4712C62.4564 24.8611 62.4416 24.8582 62.4279 24.8524C62.4142 24.8466 62.4018 24.8382 62.3915 24.8274C62.3811 24.817 62.3728 24.8046 62.3672 24.7909C62.3616 24.7773 62.3588 24.7627 62.3588 24.7479C62.3437 23.8462 62.6762 22.9732 63.2877 22.3091C64.1855 21.3011 65.6304 20.7971 67.6215 20.7971C68.7008 20.7574 69.7705 21.0115 70.716 21.5322C71.1289 21.7591 71.4981 22.058 71.8069 22.4154C72.2407 22.937 72.562 23.5432 72.7491 24.1962V24.1954ZM70.716 33.2916C70.7158 33.3205 70.707 33.3486 70.6907 33.3725C70.6744 33.3963 70.6514 33.4148 70.6246 33.4256C68.9167 34.0747 67.041 34.1395 65.2922 33.6098C65.0544 33.5317 64.8369 33.4018 64.6557 33.2295C64.4744 33.0572 64.3338 32.8468 64.2442 32.6135C64.1152 32.2457 64.0532 31.8578 64.0613 31.4682C64.021 31.0647 64.0728 30.6573 64.2129 30.2767C64.353 29.8961 64.5777 29.5521 64.8702 29.2705C65.4047 28.8251 66.383 28.6058 67.7826 28.6058C68.0931 28.6058 69.9139 28.7615 70.5969 28.8393C70.6306 28.8444 70.6613 28.8616 70.6832 28.8877C70.7052 28.9137 70.7168 28.9468 70.716 28.9808V33.2925V33.2916ZM51.7587 10.8084C52.0927 10.7941 52.4073 10.7849 52.4073 10.7849L40.1567 2.66065L32.6285 8.13935C32.9709 8.26828 33.304 8.39135 33.6379 8.50605C33.8703 8.58893 34.0986 8.66679 34.3218 8.74047C34.7036 8.86856 35.0778 8.99163 35.4478 9.09795C35.6349 9.15656 35.8179 9.21181 35.9957 9.26205C36.3901 9.37758 36.7803 9.48726 37.1637 9.58437L37.209 9.59609C37.4046 9.64633 37.6009 9.69656 37.7964 9.73926C38.0389 9.7987 39.1154 10.0381 39.3714 10.0875C39.4645 10.1093 39.5585 10.1269 39.6525 10.1445L39.7934 10.1704C40.0174 10.2123 40.2415 10.25 40.4655 10.2876L40.5326 10.2993C41.527 10.4693 42.476 10.5873 43.3805 10.666C43.6465 10.6911 43.9128 10.7134 44.1793 10.733C44.4579 10.7523 45.1342 10.7975 45.4925 10.8126C45.6066 10.8209 45.7215 10.8268 45.8306 10.8268C47.2654 10.8795 48.5576 10.8578 49.7172 10.8393C50.2643 10.8301 50.782 10.8218 51.2704 10.8218H51.3257L51.7587 10.8084Z" fill="black"/>
</svg>
