<svg width="71" height="23" viewBox="0 0 71 23" fill="none" xmlns="http://www.w3.org/2000/svg">
<path d="M5.3115 22.9646H4.78291C4.43052 22.9646 4.07813 22.9646 3.66721 22.8475C3.32494 22.7849 2.99022 22.6864 2.66857 22.5537C2.37472 22.3775 2.08145 22.2013 1.84613 21.966C1.61199 21.7318 1.37667 21.4374 1.25901 21.1441C1.0834 20.8503 1.02428 20.5564 0.965157 20.1455C0.90662 19.7346 0.848083 19.3231 0.848083 19.0298V4.93359V4.405C0.848083 4.11174 0.848084 3.70022 0.965157 3.2893C1.08282 2.99544 1.14135 2.64305 1.31755 2.34978C1.49374 2.05593 1.66994 1.76208 1.90525 1.52735C2.13999 1.29261 2.43384 1.11642 2.72711 0.940224C3.02096 0.764029 3.37335 0.704907 3.72574 0.64637C4.07813 0.529297 4.48906 0.529297 4.78291 0.529297H66.2171C66.5109 0.529297 66.9218 0.529297 67.3328 0.64637C67.6852 0.704907 67.979 0.822565 68.3314 0.940224C68.6252 1.11583 68.9185 1.29261 69.1538 1.52735C69.3886 1.76208 69.6233 2.05593 69.741 2.34978C69.9172 2.64305 69.9757 2.99544 70.0348 3.2893C70.0933 3.64169 70.1519 4.05261 70.1519 4.405V19.0304C70.1519 19.3828 70.0933 19.7352 70.0348 20.1461C69.9721 20.4883 69.8736 20.823 69.741 21.1447C69.5648 21.438 69.3886 21.7318 69.1538 21.9666C68.9185 22.2019 68.6252 22.4366 68.3314 22.5543C68.0375 22.7299 67.7443 22.789 67.3328 22.8475C66.9804 22.9061 66.5694 22.9061 66.2171 22.9652H5.3115V22.9646Z" fill="#000001"/>
</svg>
