<svg width="81" height="24" viewBox="0 0 81 24" fill="none" xmlns="http://www.w3.org/2000/svg">
<path d="M77.5374 0.72107C78.9 0.72107 80.026 1.84774 80.026 3.2104V20.9877C80.026 22.3511 78.9 23.4764 77.5374 23.4764H3.46269C2.10003 23.4764 0.974026 22.3511 0.974026 20.9877V3.2104C0.974026 1.84707 2.10003 0.72107 3.46269 0.72107H77.5374ZM77.5374 0.247737H3.46269C3.07262 0.243908 2.6857 0.317902 2.32457 0.465392C1.96344 0.612882 1.63534 0.830906 1.35947 1.10671C1.08361 1.38252 0.865509 1.71056 0.717937 2.07166C0.570366 2.43276 0.496284 2.81966 0.500026 3.20974V20.9871C0.496106 21.3773 0.570056 21.7643 0.717547 22.1256C0.865039 22.4868 1.08311 22.815 1.35899 23.091C1.63488 23.3669 1.96303 23.5851 2.32426 23.7326C2.68548 23.8802 3.07251 23.9542 3.46269 23.9504H77.5374C77.9275 23.9542 78.3145 23.8802 78.6756 23.7327C79.0368 23.5852 79.3649 23.3671 79.6408 23.0912C79.9167 22.8153 80.1348 22.4872 80.2823 22.126C80.4298 21.7648 80.5039 21.3779 80.5 20.9877V3.2104C80.5 1.6104 79.196 0.24707 77.5374 0.24707V0.247737Z" fill="#A6A6A6"/>
</svg>
