<svg width="16" height="15" viewBox="0 0 16 15" fill="none" xmlns="http://www.w3.org/2000/svg">
<path d="M3.33636 1.85062C3.33717 2.05864 3.29699 2.26477 3.21813 2.45726C3.13926 2.64975 3.02326 2.82481 2.87674 2.97247C2.73021 3.12012 2.55604 3.23747 2.36417 3.31781C2.17229 3.39816 1.96647 3.43992 1.75846 3.44072C1.55045 3.43992 1.34463 3.39816 1.15275 3.31781C0.960877 3.23747 0.786707 3.12012 0.640184 2.97247C0.493662 2.82481 0.377657 2.64975 0.298794 2.45726C0.219931 2.26477 0.179753 2.05864 0.180555 1.85062C0.178935 1.43058 0.34414 1.02708 0.639869 0.728775C0.935598 0.430474 1.33766 0.261782 1.7577 0.259766C1.96588 0.260465 2.17188 0.302174 2.36393 0.38251C2.55599 0.462846 2.73033 0.580235 2.877 0.72797C3.02368 0.875705 3.13981 1.05089 3.21876 1.24352C3.29771 1.43615 3.33793 1.64244 3.33713 1.85062H3.33636ZM3.34856 4.7131H0.167603V14.8921H3.34856V4.71386V4.7131ZM8.42665 4.7131H5.26627V14.8921H8.42741V9.54891C8.42741 6.57748 12.2628 6.33519 12.2628 9.54891V14.8921H15.4362V8.44719C15.4362 3.43462 9.75998 3.61672 8.42665 6.08529V4.71386V4.7131Z" fill="black"/>
</svg>
