<svg width="16" height="13" viewBox="0 0 16 13" fill="none" xmlns="http://www.w3.org/2000/svg">
<path d="M16 1.63888C15.4284 1.89217 14.822 2.05834 14.2012 2.13183C14.8553 1.74069 15.3447 1.12483 15.5779 0.399258C14.9632 0.764136 14.2907 1.0213 13.5894 1.15964C13.2963 0.846716 12.942 0.597383 12.5486 0.427126C12.1551 0.256868 11.7308 0.169323 11.3021 0.169925C9.28002 0.169925 7.79354 2.05716 8.25068 4.01602C7.00517 3.95363 5.7867 3.62999 4.67439 3.06609C3.56209 2.50219 2.58082 1.71066 1.7943 0.742878C1.39375 1.43263 1.27101 2.24907 1.45105 3.02611C1.63108 3.80315 2.10037 4.48242 2.76345 4.92573C2.26629 4.90987 1.78013 4.77533 1.34554 4.53335C1.31125 5.98478 2.35125 7.3425 3.85754 7.64497C3.39614 7.77027 2.91221 7.78851 2.44268 7.69831C2.64267 8.32082 3.03231 8.8652 3.55707 9.25525C4.08183 9.6453 4.71543 9.86149 5.36916 9.87354C4.05615 10.9033 2.38819 11.3699 0.731445 11.1711C2.16393 12.0914 3.83107 12.5799 5.53373 12.5783C11.3493 12.5783 14.6354 7.66631 14.4366 3.26021C15.0497 2.81701 15.5791 2.26827 16 1.63964V1.63888Z" fill="black"/>
</svg>
