<svg width="14" height="16" viewBox="0 0 14 16" fill="none" xmlns="http://www.w3.org/2000/svg">
<path d="M2.52304 0.498047H3.43885L4.06742 2.85309L4.65028 0.498809H5.57523L4.51618 3.99976V6.38986H3.60571V4.00052L2.5238 0.498047H2.52304ZM6.71809 2.00814C6.00647 2.00814 5.53409 2.479 5.53409 3.17538V5.30567C5.53409 6.07214 5.93409 6.47138 6.71809 6.47138C7.36799 6.47138 7.87999 6.03633 7.87999 5.30567V3.17538C7.87999 2.495 7.37256 2.00814 6.71809 2.00814ZM7.05561 5.26909C7.05561 5.50605 6.93523 5.68052 6.71732 5.68052C6.49409 5.68052 6.36532 5.49767 6.36532 5.26909V3.24776C6.36532 3.01005 6.47428 2.83405 6.70132 2.83405C6.94971 2.83405 7.05561 3.00471 7.05561 3.24776V5.27062V5.26909ZM10.0651 2.04395V5.343C9.96609 5.46719 9.74666 5.66909 9.58894 5.66909C9.41675 5.66909 9.37409 5.551 9.37409 5.37652V2.04395H8.56647V5.67671C8.56647 6.10643 8.69752 6.45309 9.13028 6.45309C9.37485 6.45309 9.71466 6.32586 10.0644 5.91062V6.39062H10.872V2.04319H10.0644L10.0651 2.04395ZM11.4663 10.8607C11.1813 10.8607 11.1219 11.0611 11.1219 11.346V11.7651H11.8023V11.3453C11.8023 11.0657 11.7436 10.8607 11.4663 10.8607ZM8.47428 10.8859C8.41405 10.9182 8.35991 10.9607 8.31428 11.0116V13.5914C8.36623 13.6504 8.42812 13.6999 8.49713 13.7377C8.62285 13.8009 8.80571 13.8055 8.89104 13.695C8.93599 13.6363 8.95809 13.5411 8.95809 13.4093V11.2721C8.95809 11.132 8.93066 11.0268 8.8758 10.9537C8.78285 10.8318 8.60913 10.818 8.47428 10.8859ZM11.5448 7.58071C9.88837 7.46871 4.50475 7.46871 2.85142 7.58071C1.06094 7.70262 0.849134 8.78452 0.836182 11.6318C0.849134 14.4737 1.05866 15.5601 2.85066 15.682C4.50475 15.7948 9.88837 15.7948 11.5448 15.682C13.3352 15.5601 13.5463 14.4782 13.56 11.6318C13.5463 8.78986 13.3368 7.70338 11.5448 7.58071ZM3.70475 14.3792H2.83771V9.58224H1.94018V8.76776H4.60075V9.583H3.70399V14.3792H3.70475ZM6.78742 14.3792H6.0179V13.922C5.87618 14.0912 5.72837 14.2192 5.57523 14.3076C5.15999 14.5453 4.59085 14.54 4.59085 13.6996V10.2405H5.36037V13.4139C5.36037 13.58 5.39999 13.692 5.56456 13.692C5.71466 13.692 5.92342 13.4992 6.01713 13.3826V10.2398H6.78666V14.3784H6.78742V14.3792ZM9.75047 13.522C9.75047 14.034 9.55847 14.4318 9.04647 14.4318C8.76456 14.4318 8.5299 14.3289 8.31504 14.0615V14.3792H7.53866V8.76776H8.3158V10.575C8.48952 10.3632 8.72494 10.188 8.99999 10.188C9.5638 10.188 9.75123 10.6649 9.75123 11.2257V13.522H9.75047ZM12.5947 12.4074H11.1227V13.1883C11.1227 13.4992 11.1493 13.7674 11.4579 13.7674C11.7832 13.7674 11.8023 13.5487 11.8023 13.1883V12.9011H12.5947V13.212C12.5947 14.0089 12.2518 14.492 11.4411 14.492C10.7067 14.492 10.3303 13.9571 10.3303 13.212V11.3521C10.3303 10.6344 10.8049 10.1354 11.499 10.1354C12.2381 10.1354 12.5939 10.6047 12.5939 11.3529V12.4066H12.5947V12.4074Z" fill="black"/>
</svg>
